SplineFontDB: 3.2
FontName: ARCORegular
FullName: ARCO Regular
FamilyName: ARCO
Weight: Regular
Copyright: (c) 2019, Rafael Olivo Di'az, Denis Ignatov
Version: 
ItalicAngle: 0
UnderlinePosition: 0
UnderlineWidth: 0
Ascent: 2047
Descent: 300
InvalidEm: 0
sfntRevision: 0x00010000
LayerCount: 2
Layer: 0 0 "Back" 1
Layer: 1 0 "Fore" 0
XUID: [1021 683 -2137286208 20858]
StyleMap: 0x0020
FSType: 0
OS2Version: 3
OS2_WeightWidthSlopeOnly: 0
OS2_UseTypoMetrics: 0
CreationTime: 1740875888
ModificationTime: 1740897182
PfmFamily: 17
TTFWeight: 700
TTFWidth: 5
LineGap: 0
VLineGap: 0
Panose: 2 0 8 0 0 0 0 0 0 0
OS2TypoAscent: 1568
OS2TypoAOffset: 0
OS2TypoDescent: 0
OS2TypoDOffset: 0
OS2TypoLinegap: 0
OS2WinAscent: 2354
OS2WinAOffset: 0
OS2WinDescent: 144
OS2WinDOffset: 0
HheadAscent: 1568
HheadAOffset: 0
HheadDescent: 0
HheadDOffset: 0
OS2SubXSize: 709
OS2SubYSize: 764
OS2SubXOff: 0
OS2SubYOff: 154
OS2SupXSize: 709
OS2SupYSize: 764
OS2SupXOff: 0
OS2SupYOff: 523
OS2StrikeYSize: 53
OS2StrikeYPos: 281
OS2CapHeight: 1687
OS2XHeight: 1699
OS2Vendor: 'XXXX'
OS2CodePages: 00000001.00000000
OS2UnicodeRanges: 00000223.0000000a.00000000.00000000
MarkAttachClasses: 1
DEI: 91125
LangName: 1033 "+AKkA 2019, Rafael Olivo D+AO0A-az, Denis Ignatov" "" "" "Rafael Olivo D+AO0A-az: ARCO Regular" "" "" "" " " "Rafael Olivo D+AO0A-az" "Rafael Olivo D+AO0A-az, Denis Ignatov" " " "https://www.behance.net/rafaelolivod" "https://www.behance.net/rafaelolivod, https://mutno.me/fonts" "SIL Open Font License (OFL)" "https://scripts.sil.org/OFL" "" "ARCO" "Regular"
Encoding: UnicodeBmp
Compacted: 1
UnicodeInterp: none
NameList: AGL For New Fonts
DisplaySize: -48
AntiAlias: 1
FitToEm: 0
WidthSeparation: 246
WinInfo: 0 30 12
BeginPrivate: 0
EndPrivate
BeginChars: 65600 65

StartChar: exclam
Encoding: 33 33 0
Width: 1054
VWidth: 2237
GlyphClass: 1
Flags: W
HStem: 0 518<377.722 690.592>
VStem: 235.5 583<716.714 1655.37> 270.5 527<109.914 411.286>
LayerCount: 2
Fore
SplineSet
564.5 579 m 0xc0
 545.5 578 528.5 578 512.5 578 c 0
 426.5 578 367.5 586 329.5 607 c 0
 310.5 617 293.5 667 279.5 760 c 0
 265.5 852 253.5 958 245.5 1071 c 0
 237.5 1183 236.5 1291 235.5 1395 c 0
 235.5 1421 235.5 1446 235.5 1468 c 0
 235.5 1534 238.5 1580 240.5 1606 c 0
 242.5 1636 276.5 1657 332.5 1672 c 0
 388.5 1687 453.5 1697 521.5 1698 c 0
 530.5 1698 541.5 1699 550.5 1699 c 0
 606.5 1699 664.5 1692 712.5 1683 c 0
 768.5 1673 801.5 1654 803.5 1629 c 0
 811.5 1561 817.5 1473 818.5 1364 c 0
 818.5 1345 818.5 1328 818.5 1309 c 0
 818.5 1219 815.5 1130 811.5 1042 c 0
 807.5 938 797.5 845 788.5 765 c 0
 778.5 684 765.5 637 751.5 623 c 1
 737.5 597 676.5 581 564.5 579 c 0xc0
343.5 80 m 0
 301.5 122 279.5 175 273.5 232 c 0
 272.5 242 270.5 254 270.5 264 c 0
 270.5 333 299.5 395 353.5 447 c 0
 404.5 495 459.5 518 524.5 518 c 0
 539.5 518 554.5 517 570.5 515 c 0
 662.5 500 727.5 463 760.5 403 c 0
 785.5 359 797.5 314 797.5 268 c 0xa0
 797.5 250 796.5 234 793.5 216 c 0
 780.5 152 746.5 98 694.5 53 c 0
 652.5 16 603.5 0 546.5 0 c 0
 528.5 0 511.5 1 492.5 3 c 0
 436.5 12 385.5 38 343.5 80 c 0
EndSplineSet
Validated: 524289
EndChar

StartChar: zero
Encoding: 48 48 1
Width: 1882
VWidth: 2237
GlyphClass: 1
Flags: W
HStem: 2 21G<827 1103> 1077 587<806.497 1075.84>
VStem: 235 500<661.377 1005.75> 1149 498<654.961 1004.5>
LayerCount: 2
Fore
SplineSet
1485 234 m 0
 1389 91 1222 11 984 2 c 0
 970 2 958 2 944 2 c 0
 710 2 532 80 409 238 c 0
 293 386 235 584 235 822 c 0
 235 849 236 878 237 907 c 0
 250 1103 299 1273 389 1416 c 0
 478 1559 644 1641 882 1660 c 0
 907 1662 934 1664 958 1664 c 0
 1177 1664 1345 1587 1467 1430 c 0
 1587 1275 1647 1081 1647 846 c 0
 1647 817 1646 788 1645 758 c 0
 1632 553 1581 378 1485 234 c 0
1094 1010 m 0
 1056 1056 1010 1077 946 1077 c 0
 939 1077 931 1076 924 1076 c 0
 855 1070 806 1047 780 1004 c 0
 753 962 738 909 736 853 c 0
 735 844 735 834 735 825 c 0
 735 757 751 702 784 658 c 0
 821 612 874 589 942 589 c 0
 945 589 949 589 952 589 c 0
 1021 591 1074 614 1101 657 c 0
 1128 700 1145 751 1148 811 c 0
 1148 818 1149 829 1149 836 c 0
 1149 905 1131 963 1094 1010 c 0
EndSplineSet
Validated: 1
EndChar

StartChar: one
Encoding: 49 49 2
Width: 1605
VWidth: 2237
GlyphClass: 1
Flags: W
HStem: 0 21G<941 1001.5> 0 21G<941 1001.5> 1655 20G<1010.5 1045> 1655 20G<1010.5 1045>
VStem: 703.5 667<163.988 891>
LayerCount: 2
Fore
SplineSet
1060.5 1 m 0xa8
 1035.5 0 1012.5 0 990.5 0 c 0
 891.5 0 816.5 10 769.5 30 c 0
 742.5 40 725.5 140 721.5 323 c 0
 717.5 506 711.5 698 703.5 891 c 1
 657.5 872 606.5 853 559.5 837 c 0
 516.5 822 488.5 814 473.5 814 c 0
 471.5 814 468.5 815 467.5 815 c 0
 466.5 815 l 0
 434.5 815 386.5 868 330.5 971 c 0
 273.5 1075 238.5 1158 234.5 1222 c 0
 234.5 1223 234.5 1223 234.5 1224 c 0
 234.5 1253 277.5 1300 361.5 1367 c 0
 448.5 1436 568.5 1523 725.5 1621 c 0
 754.5 1639 802.5 1653 870.5 1663 c 0
 924.5 1670 982.5 1675 1038.5 1675 c 0
 1051.5 1675 1062.5 1674 1075.5 1674 c 0
 1144.5 1672 1209.5 1662 1264.5 1644 c 0
 1318.5 1626 1348.5 1601 1351.5 1563 c 0
 1361.5 1459 1369.5 1325 1370.5 1164 c 0
 1370.5 1127 1370.5 1090 1370.5 1053 c 0
 1370.5 929 1367.5 805 1363.5 683 c 0
 1357.5 526 1347.5 387 1333.5 266 c 0
 1319.5 145 1304.5 75 1288.5 53 c 1
 1273.5 23 1197.5 5 1060.5 1 c 0xa8
EndSplineSet
Validated: 524289
EndChar

StartChar: two
Encoding: 50 50 3
Width: 1745
VWidth: 2237
GlyphClass: 1
Flags: W
HStem: 1 496<917 1450.17> 1165 507<744.788 941.921>
LayerCount: 2
Fore
SplineSet
235 214 m 0
 236 325 241 391 245 416 c 0
 287 587 361 715 472 802 c 0
 583 888 718 958 867 1018 c 0
 923 1040 950 1064 950 1088 c 0
 950 1089 950 1094 950 1095 c 0
 946 1121 927 1139 897 1153 c 0
 878 1160 860 1165 839 1165 c 0
 825 1165 813 1162 799 1159 c 0
 762 1151 740 1126 739 1083 c 0
 738 1067 733 1054 724 1041 c 0
 704 1020 669 1010 620 1010 c 0
 618 1010 614 1010 612 1010 c 0
 558 1011 504 1018 452 1028 c 0
 415 1036 381 1042 351 1055 c 0
 320 1068 294 1088 269 1117 c 0
 256 1131 252 1149 252 1171 c 0
 252 1203 263 1243 287 1292 c 0
 329 1378 366 1437 398 1470 c 0
 502 1579 631 1645 780 1665 c 0
 814 1669 850 1672 883 1672 c 0
 995 1672 1100 1646 1198 1594 c 0
 1321 1528 1413 1420 1470 1273 c 0
 1496 1206 1510 1142 1510 1078 c 0
 1510 1002 1494 929 1453 860 c 0
 1389 749 1298 677 1182 640 c 0
 1066 603 974 554 917 497 c 1
 1010 499 1102 505 1195 507 c 0
 1241 508 1280 509 1311 509 c 0
 1342 509 1364 508 1379 507 c 0
 1408 506 1434 483 1453 440 c 0
 1472 396 1482 345 1490 291 c 0
 1494 259 1499 229 1499 198 c 0
 1499 177 1498 156 1497 135 c 0
 1493 83 1478 48 1459 30 c 0
 1449 21 1382 11 1266 8 c 0
 1150 5 1020 1 879 1 c 0
 738 1 607 5 484 8 c 0
 361 11 291 20 269 29 c 0
 247 42 235 94 235 186 c 0
 235 194 235 205 235 214 c 0
EndSplineSet
Validated: 1
EndChar

StartChar: three
Encoding: 51 51 4
Width: 1767
VWidth: 2237
GlyphClass: 1
Flags: W
HStem: -4 523<734.215 925.729> 1141 536<378.789 735.5>
VStem: 300.5 1192<1290.01 1608.96>
LayerCount: 2
Fore
SplineSet
1510.5 432 m 0
 1490.5 352 1455.5 281 1403.5 220 c 0
 1350.5 159 1287.5 111 1215.5 74 c 0
 1143.5 36 1058.5 11 962.5 1 c 0
 928.5 -2 894.5 -4 861.5 -4 c 0
 805.5 -4 746.5 1 694.5 14 c 0
 478.5 68 329.5 203 240.5 413 c 0
 237.5 422 234.5 431 234.5 439 c 0
 234.5 465 250.5 490 281.5 514 c 0
 324.5 545 373.5 573 433.5 593 c 0
 493.5 613 553.5 625 609.5 631 c 0
 631.5 633 649.5 637 665.5 637 c 0
 690.5 637 706.5 633 713.5 626 c 0
 723.5 613 731.5 599 732.5 583 c 0
 734.5 540 753.5 519 794.5 519 c 0
 808.5 519 824.5 522 843.5 526 c 0
 903.5 542 933.5 565 933.5 594 c 0
 933.5 598 929.5 605 928.5 609 c 0
 914.5 650 865.5 693 776.5 742 c 0
 687.5 791 641.5 852 639.5 926 c 0
 639.5 927 639.5 930 639.5 932 c 0
 639.5 950 646.5 976 654.5 1010 c 0
 663.5 1049 689.5 1092 735.5 1141 c 1
 596.5 1143 500.5 1149 447.5 1153 c 0
 410.5 1155 383.5 1178 359.5 1221 c 0
 334.5 1263 319.5 1310 310.5 1363 c 0
 304.5 1397 300.5 1432 300.5 1465 c 0
 300.5 1483 300.5 1501 302.5 1519 c 0
 306.5 1570 322.5 1603 347.5 1627 c 0
 366.5 1645 431.5 1660 542.5 1668 c 0
 635.5 1675 736.5 1677 839.5 1677 c 0
 859.5 1677 879.5 1677 900.5 1677 c 0
 1027.5 1675 1150.5 1668 1262.5 1658 c 0
 1373.5 1645 1439.5 1630 1459.5 1610 c 0
 1481.5 1588 1492.5 1552 1492.5 1507 c 0
 1492.5 1458 1479.5 1394 1452.5 1317 c 0
 1400.5 1171 1349.5 1058 1303.5 979 c 1
 1454.5 879 1532.5 746 1532.5 586 c 0
 1532.5 538 1524.5 485 1510.5 432 c 0
EndSplineSet
Validated: 524289
EndChar

StartChar: four
Encoding: 52 52 5
Width: 1917
VWidth: 2237
GlyphClass: 1
Flags: W
HStem: 0 21G<1032.5 1088> 0 21G<1032.5 1088> 1649 20G<1125.5 1190>
VStem: 236 575<724 915.666>
LayerCount: 2
Fore
SplineSet
1680 699 m 0xb0
 1676 576 1663 491 1641 440 c 0
 1632 416 1548 400 1399 392 c 1
 1393 302 1384 228 1376 167 c 0
 1368 106 1358 66 1349 52 c 0
 1335 23 1263 5 1140 1 c 0
 1118 0 1098 0 1078 0 c 0
 987 0 919 10 876 30 c 0
 861 36 849 72 840 138 c 0
 831 204 819 285 813 383 c 1
 681 385 567 386 470 386 c 0
 372 386 319 392 311 400 c 0
 282 425 258 493 244 615 c 0
 238 662 236 705 236 743 c 0
 236 800 243 849 257 882 c 0
 309 998 395 1126 518 1262 c 0
 641 1397 743 1506 829 1586 c 0
 859 1615 904 1633 968 1648 c 0
 1032 1662 1093 1669 1158 1669 c 0
 1222 1668 1276 1660 1327 1642 c 0
 1376 1624 1406 1599 1408 1566 c 0
 1416 1489 1419 1395 1421 1284 c 0
 1422 1219 1422 1152 1422 1085 c 0
 1422 1038 1422 989 1422 940 c 1
 1557 934 1633 922 1652 907 c 0
 1672 894 1681 846 1681 760 c 0
 1681 741 1681 721 1680 699 c 0xb0
984 921 m 0
 980 973 970 999 963 999 c 0
 962 999 963 999 962 999 c 0
 943 993 914 968 872 926 c 0
 830 884 811 855 811 837 c 0
 811 823 841 816 896 816 c 0
 905 816 916 815 924 815 c 0
 962 815 981 817 983 820 c 0
 986 826 987 839 987 858 c 0
 987 874 986 894 984 921 c 0
EndSplineSet
Validated: 1
EndChar

StartChar: five
Encoding: 53 53 6
Width: 1729
VWidth: 2237
GlyphClass: 1
Flags: W
HStem: 724 944<442.786 896.129> 1153 515<1035.5 1373.33>
LayerCount: 2
Fore
SplineSet
1402.5 1434 m 0x80
 1400.5 1321 1387.5 1238 1373.5 1191 c 0
 1370.5 1177 1333.5 1169 1262.5 1165 c 0
 1191.5 1161 1115.5 1155 1035.5 1153 c 1x40
 1131.5 1145 1231.5 1087 1340.5 979 c 0
 1442.5 879 1493.5 755 1493.5 616 c 0
 1493.5 609 1493.5 602 1493.5 595 c 1
 1493.5 592 1493.5 586 1493.5 583 c 0
 1493.5 427 1441.5 294 1332.5 191 c 0
 1221.5 83 1091.5 19 945.5 0 c 0
 914.5 -3 883.5 -6 852.5 -6 c 0
 729.5 -6 612.5 25 500.5 90 c 0
 361.5 170 270.5 293 237.5 452 c 0
 235.5 461 235.5 471 235.5 479 c 0
 235.5 528 266.5 572 329.5 603 c 0
 378.5 629 462.5 645 582.5 651 c 0
 595.5 652 606.5 652 616.5 652 c 0
 713.5 652 768.5 622 778.5 569 c 0
 779.5 566 782.5 560 784.5 556 c 0
 792.5 536 808.5 521 828.5 513 c 0
 842.5 509 856.5 503 866.5 503 c 0
 884.5 503 899.5 510 912.5 523 c 0
 932.5 543 941.5 566 941.5 593 c 0
 941.5 594 941.5 596 941.5 597 c 0
 940.5 627 924.5 657 897.5 683 c 0
 868.5 710 823.5 724 759.5 724 c 0
 743.5 723 726.5 723 707.5 723 c 0
 677.5 723 645.5 724 611.5 725 c 0
 523.5 728 468.5 745 441.5 774 c 0
 414.5 803 392.5 842 382.5 894 c 0
 357.5 1010 341.5 1154 337.5 1321 c 0
 336.5 1342 336.5 1364 336.5 1383 c 0
 336.5 1516 353.5 1594 384.5 1625 c 0
 398.5 1639 453.5 1650 552.5 1656 c 0
 651.5 1664 759.5 1668 875.5 1668 c 0
 991.5 1668 1102.5 1665 1202.5 1657 c 0
 1302.5 1651 1359.5 1638 1375.5 1623 c 0
 1391.5 1613 1404.5 1563 1404.5 1474 c 0
 1404.5 1461 1402.5 1448 1402.5 1434 c 0x80
EndSplineSet
Validated: 524289
EndChar

StartChar: six
Encoding: 54 54 7
Width: 1753
VWidth: 2237
GlyphClass: 1
Flags: W
HStem: 1 21G<863.5 906> 1 21G<863.5 906> 1661 20G<1121 1143> 1661 20G<1121 1143>
VStem: 234.5 557<523.349 728.219>
LayerCount: 2
Fore
SplineSet
796.5 589 m 0x08
 811.5 538 841.5 512 885.5 512 c 0
 888.5 512 894.5 513 898.5 513 c 0
 944.5 516 966.5 544 966.5 596 c 0
 966.5 599 966.5 604 966.5 607 c 0
 964.5 637 950.5 663 925.5 685 c 0
 910.5 700 893.5 707 874.5 707 c 0
 864.5 707 854.5 703 841.5 699 c 0
 808.5 685 791.5 662 791.5 629 c 0
 791.5 616 792.5 604 796.5 589 c 0x08
235.5 758 m 0
 239.5 885 272.5 1008 336.5 1129 c 0
 400.5 1251 493.5 1360 616.5 1458 c 0
 739.5 1557 902.5 1631 1100.5 1677 c 0
 1108.5 1678 1117.5 1681 1124.5 1681 c 0
 1161.5 1681 1191.5 1662 1220.5 1624 c 0
 1253.5 1579 1282.5 1527 1301.5 1470 c 0
 1320.5 1414 1333.5 1356 1335.5 1304 c 0
 1335.5 1296 1336.5 1285 1336.5 1278 c 0
 1336.5 1240 1330.5 1222 1317.5 1218 c 0
 1286.5 1208 1253.5 1193 1220.5 1183 c 0
 1187.5 1174 1152.5 1158 1115.5 1134 c 1
 1216.5 1103 1312.5 1033 1391.5 933 c 0
 1470.5 833 1512.5 720 1515.5 604 c 0
 1515.5 597 1518.5 587 1518.5 580 c 0
 1518.5 429 1464.5 298 1364.5 196 c 0
 1255.5 88 1130.5 25 984.5 6 c 0
 953.5 3 921.5 1 890.5 1 c 0xa8
 836.5 1 778.5 6 724.5 19 c 0
 637.5 38 559.5 72 490.5 124 c 0
 389.5 199 318.5 299 279.5 413 c 0
 249.5 501 234.5 596 234.5 699 c 0
 234.5 719 234.5 738 235.5 758 c 0
EndSplineSet
Validated: 524289
EndChar

StartChar: seven
Encoding: 55 55 8
Width: 1732
VWidth: 2237
GlyphClass: 1
Flags: W
HStem: 1 21G<825.5 917.5> 1 21G<825.5 917.5> 1654 20G<879 946.5> 1654 20G<879 946.5>
LayerCount: 2
Fore
SplineSet
1053 8 m 0x60
 1002 4 948 1 887 1 c 0
 877 1 861 1 851 1 c 0xa0
 800 1 753 2 706 4 c 0
 649 6 602 14 575 22 c 0
 561 25 558 49 558 94 c 0
 558 147 565 231 584 343 c 0
 617 548 652 756 694 972 c 1
 586 973 497 978 420 986 c 0
 342 994 295 1002 279 1016 c 0
 264 1024 251 1055 245 1107 c 0
 237 1159 235 1212 235 1277 c 0
 235 1341 238 1403 242 1464 c 0
 246 1525 257 1570 266 1600 c 0
 274 1625 335 1643 447 1656 c 0
 559 1666 684 1671 822 1672 c 0
 844 1672 868 1674 890 1674 c 0
 1003 1674 1113 1671 1217 1664 c 0
 1342 1656 1422 1647 1459 1634 c 0
 1484 1626 1497 1587 1497 1519 c 0
 1497 1478 1492 1427 1484 1366 c 0
 1460 1201 1427 1023 1381 830 c 0
 1335 637 1287 457 1238 292 c 0
 1189 127 1154 41 1140 27 c 0
 1131 19 1102 11 1053 8 c 0x60
EndSplineSet
Validated: 1
EndChar

StartChar: eight
Encoding: 56 56 9
Width: 1853
VWidth: 2237
GlyphClass: 1
Flags: W
HStem: 717 368<837.468 991.759>
VStem: 235 584<537.581 706.431>
LayerCount: 2
Fore
SplineSet
833 1149 m 0
 843 1106 871 1085 915 1085 c 0
 918 1085 924 1085 927 1085 c 0
 973 1088 994 1115 994 1159 c 0
 994 1163 994 1170 994 1174 c 0
 992 1203 982 1225 957 1239 c 0
 943 1246 929 1251 913 1251 c 0
 899 1251 885 1247 870 1241 c 0
 843 1231 828 1208 828 1179 c 0
 828 1170 831 1159 833 1149 c 0
825 596 m 0
 838 550 867 527 913 527 c 0
 917 527 924 530 928 530 c 0
 979 533 1005 563 1005 612 c 0
 1005 616 1004 623 1004 627 c 0
 1002 658 985 683 958 701 c 0
 943 710 928 717 912 717 c 0
 897 717 880 712 864 704 c 0
 834 689 819 664 819 633 c 0
 819 623 822 609 825 596 c 0
427 191 m 0
 296 293 235 425 235 583 c 0
 235 628 240 676 249 724 c 0
 265 803 297 876 342 943 c 1
 308 1010 290 1081 290 1157 c 0
 290 1195 295 1232 303 1273 c 0
 333 1415 418 1536 559 1634 c 0
 646 1695 753 1724 879 1724 c 0
 957 1724 1044 1714 1138 1690 c 0
 1240 1660 1336 1597 1415 1503 c 0
 1494 1409 1540 1309 1543 1199 c 0
 1543 1193 1543 1188 1543 1182 c 0
 1543 1104 1523 1030 1489 963 c 1
 1568 863 1615 753 1618 641 c 0
 1618 633 1618 623 1618 615 c 0
 1618 459 1561 330 1449 228 c 0
 1328 118 1185 56 1024 37 c 0
 982 33 944 27 903 27 c 0
 721 27 563 81 427 191 c 0
EndSplineSet
Validated: 1
EndChar

StartChar: nine
Encoding: 57 57 10
Width: 1777
VWidth: 2237
GlyphClass: 1
Flags: W
HStem: 1 21G<733 847> 1 21G<733 847> 1648 20G<781 938.5>
VStem: 234.5 557<969.203 1150.44> 961.5 581<953.891 1145.99>
LayerCount: 2
Fore
SplineSet
959.5 1071 m 0x38
 951.5 1127 921.5 1156 870.5 1156 c 0
 819.5 1156 793.5 1127 791.5 1071 c 0
 791.5 1068 791.5 1062 791.5 1059 c 0
 791.5 1032 798.5 1006 817.5 984 c 0
 831.5 966 849.5 959 870.5 959 c 0
 879.5 959 890.5 961 900.5 963 c 0
 941.5 973 961.5 1002 961.5 1046 c 0
 961.5 1053 960.5 1063 959.5 1071 c 0x38
1539.5 941 m 0
 1533.5 802 1501.5 670 1437.5 545 c 0
 1373.5 420 1285.5 307 1172.5 210 c 0
 1058.5 113 924.5 44 769.5 1 c 1
 765.5 1 758.5 1 754.5 1 c 0xb8
 711.5 1 672.5 18 634.5 52 c 0
 591.5 93 558.5 137 533.5 189 c 0
 507.5 241 490.5 287 488.5 332 c 0
 488.5 338 488.5 345 488.5 349 c 0
 488.5 383 498.5 407 522.5 414 c 0
 541.5 418 575.5 427 627.5 441 c 0
 678.5 455 710.5 473 724.5 497 c 1
 575.5 519 451.5 590 357.5 712 c 0
 276.5 816 234.5 934 234.5 1065 c 0
 234.5 1086 234.5 1107 236.5 1128 c 0
 252.5 1289 323.5 1419 446.5 1515 c 0
 569.5 1612 706.5 1664 855.5 1668 c 0
 863.5 1668 873.5 1668 881.5 1668 c 0
 995.5 1668 1105.5 1643 1206.5 1590 c 0
 1315.5 1534 1399.5 1448 1455.5 1336 c 0
 1511.5 1222 1542.5 1102 1542.5 976 c 0
 1542.5 966 1539.5 951 1539.5 941 c 0
EndSplineSet
Validated: 524289
EndChar

StartChar: question
Encoding: 63 63 11
Width: 1587
VWidth: 2237
GlyphClass: 1
Flags: W
HStem: 1 471<576.058 869.23> 1238 479<659.159 879>
VStem: 480 481<95.6103 380.872>
LayerCount: 2
Fore
SplineSet
426 1166 m 0
 366 1185 320 1209 283 1239 c 0
 251 1265 236 1292 236 1323 c 0
 236 1330 236 1343 238 1351 c 0
 265 1448 322 1529 408 1597 c 0
 494 1665 583 1706 683 1714 c 0
 704 1716 727 1717 747 1717 c 0
 843 1717 932 1696 1013 1653 c 0
 1111 1602 1193 1540 1250 1454 c 0
 1306 1370 1341 1274 1350 1172 c 0
 1351 1159 1351 1146 1351 1133 c 0
 1351 1043 1326 958 1275 874 c 0
 1215 776 1107 708 952 666 c 0
 918 659 902 630 902 583 c 0
 902 580 902 574 902 571 c 0
 902 570 902 569 902 568 c 0
 902 549 882 532 841 524 c 0
 798 514 752 508 700 507 c 0
 694 507 686 507 680 507 c 0
 635 507 596 510 558 517 c 0
 517 524 499 539 499 557 c 0
 499 558 499 559 499 560 c 1
 492 611 485 656 485 697 c 0
 485 731 489 764 495 791 c 0
 509 851 532 900 569 942 c 0
 614 995 674 1033 748 1052 c 0
 822 1071 864 1095 878 1121 c 0
 885 1136 890 1149 890 1159 c 0
 890 1192 858 1216 797 1230 c 0
 776 1234 757 1238 739 1238 c 0
 692 1238 664 1219 657 1181 c 0
 650 1149 627 1132 593 1132 c 0
 591 1132 587 1133 584 1133 c 0
 538 1135 483 1147 426 1166 c 0
550 74 m 0
 504 119 480 171 480 231 c 0
 480 245 481 258 483 273 c 0
 492 337 526 385 578 426 c 0
 620 457 664 472 712 472 c 0
 726 472 740 471 755 469 c 0
 802 461 845 444 883 415 c 0
 920 388 943 349 953 298 c 0
 957 278 961 257 961 238 c 0
 961 191 947 146 917 102 c 0
 875 45 821 10 750 2 c 0
 742 1 731 1 723 1 c 0
 657 1 599 25 550 74 c 0
EndSplineSet
Validated: 1
EndChar

StartChar: A
Encoding: 65 65 12
Width: 2086
VWidth: 2237
GlyphClass: 1
Flags: W
HStem: 1 21G<1360.5 1381> 1 21G<1360.5 1381> 337 375<866.971 1141.9> 1647 20G<1032.5 1070.5>
LayerCount: 2
Fore
SplineSet
234.5 92 m 0xb0
 234.5 95 234.5 98 234.5 101 c 0
 234.5 172 246.5 277 271.5 413 c 0
 297.5 555 329.5 699 370.5 853 c 0
 411.5 1007 450.5 1150 495.5 1285 c 0
 539.5 1420 578.5 1514 610.5 1568 c 0
 624.5 1590 660.5 1608 725.5 1626 c 0
 789.5 1644 859.5 1654 937.5 1660 c 0
 976.5 1663 1013.5 1667 1051.5 1667 c 0
 1089.5 1667 1123.5 1663 1160.5 1660 c 0
 1231.5 1654 1280.5 1638 1309.5 1612 c 0
 1351.5 1571 1400.5 1488 1455.5 1353 c 0
 1510.5 1218 1564.5 1074 1617.5 917 c 0
 1670.5 760 1718.5 608 1761.5 464 c 0
 1804.5 320 1830.5 218 1844.5 158 c 0
 1847.5 142 1851.5 129 1851.5 116 c 0
 1851.5 95 1844.5 78 1835.5 68 c 0
 1820.5 50 1795.5 37 1756.5 31 c 0
 1691.5 21 1614.5 12 1518.5 8 c 0
 1449.5 5 1396.5 1 1365.5 1 c 0
 1355.5 1 1344.5 1 1338.5 2 c 0
 1329.5 4 1322.5 11 1314.5 14 c 0
 1288.5 30 1263.5 74 1238.5 151 c 0
 1213.5 228 1190.5 280 1166.5 309 c 0
 1152.5 327 1135.5 334 1111.5 336 c 2
 933.5 337 l 2
 878.5 336 838.5 319 822.5 282 c 0
 800.5 236 775.5 187 748.5 131 c 0
 721.5 76 700.5 40 686.5 26 c 0
 680.5 18 671.5 11 657.5 9 c 0
 638.5 6 605.5 3 557.5 3 c 0
 526.5 3 488.5 3 445.5 4 c 0
 333.5 6 270.5 20 255.5 39 c 0
 241.5 54 235.5 72 234.5 92 c 0xb0
893.5 874 m 0
 873.5 827 865.5 792 865.5 770 c 0
 865.5 764 865.5 757 866.5 754 c 0
 875.5 725 916.5 712 988.5 712 c 0
 994.5 712 1001.5 712 1008.5 712 c 0
 1092.5 714 1137.5 735 1145.5 773 c 0
 1145.5 774 1146.5 777 1146.5 779 c 0
 1146.5 804 1124.5 854 1080.5 929 c 0
 1046.5 986 1015.5 1015 990.5 1015 c 0
 982.5 1015 970.5 1011 963.5 1003 c 0
 938.5 978 917.5 934 893.5 874 c 0
EndSplineSet
Validated: 524289
EndChar

StartChar: B
Encoding: 66 66 13
Width: 1870
VWidth: 2237
GlyphClass: 1
Flags: W
HStem: 2 413<804.48 1039.55> 726 337<818.609 967.836> 1313 379<732.5 976.445>
VStem: 238 541<451.603 711.375 1071.3 1277.16> 1007 476<1104.67 1281.97> 1078 556<455.418 663.269>
LayerCount: 2
Fore
SplineSet
973 2 m 0xf4
 896 1 816 0 729 0 c 0
 641 1 559 5 481 8 c 0
 403 12 353 19 326 32 c 0
 301 41 280 116 266 255 c 0
 252 394 241 550 238 721 c 0
 236 815 236 909 236 1000 c 0
 236 1075 236 1148 237 1220 c 0
 239 1381 250 1489 259 1542 c 0
 265 1575 303 1607 370 1633 c 0
 437 1659 515 1677 611 1686 c 0
 658 1690 707 1692 758 1692 c 0
 809 1692 861 1690 914 1686 c 0
 1022 1677 1117 1652 1205 1613 c 0
 1332 1557 1417 1464 1460 1333 c 0
 1476 1285 1483 1237 1483 1191 c 0xf8
 1483 1114 1461 1040 1415 969 c 1
 1418 965 l 1
 1514 909 1578 831 1609 738 c 0
 1625 687 1634 635 1634 581 c 0
 1634 536 1629 491 1619 444 c 0
 1592 331 1534 230 1445 149 c 0
 1356 68 1251 22 1127 9 c 0
 1101 7 1048 4 973 2 c 0xf4
778 1156 m 0
 782 1104 798 1077 818 1071 c 0
 831 1068 843 1063 857 1063 c 0
 886 1063 914 1074 943 1094 c 0
 986 1123 1007 1157 1007 1200 c 0
 1007 1229 996 1253 971 1277 c 0
 946 1301 908 1312 857 1313 c 0
 812 1313 785 1302 781 1278 c 0
 777 1260 774 1242 774 1218 c 0
 774 1199 776 1178 778 1156 c 0
963 427 m 0
 1040 448 1078 490 1078 547 c 0xf4
 1078 555 1077 565 1076 574 c 0
 1067 627 1030 671 974 701 c 0
 941 719 910 726 880 726 c 0
 858 726 837 720 817 712 c 0
 792 699 779 665 779 601 c 0
 779 597 779 588 779 585 c 0
 779 530 788 484 804 450 c 0
 814 425 839 415 878 415 c 0
 902 415 930 419 963 427 c 0
EndSplineSet
Validated: 1
EndChar

StartChar: C
Encoding: 67 67 14
Width: 1811
VWidth: 2237
GlyphClass: 1
Flags: W
HStem: 0 625<965.048 1422.25> 1104 577<1090.96 1359>
VStem: 236 665<683.159 950.483>
LayerCount: 2
Fore
SplineSet
1275 1098 m 0
 1244 1096 1212 1090 1182 1086 c 0
 1105 1071 1038 1034 974 978 c 0
 925 933 901 881 901 818 c 0
 901 802 902 784 905 766 c 0
 913 727 932 698 961 676 c 0
 1005 642 1062 625 1133 625 c 0
 1135 625 1138 625 1140 625 c 0
 1215 627 1281 634 1335 647 c 0
 1349 651 1361 653 1375 653 c 0
 1423 641 l 0
 1450 627 1477 603 1499 572 c 0
 1532 520 1555 450 1569 362 c 0
 1573 330 1575 303 1575 276 c 0
 1575 228 1569 184 1554 147 c 0
 1535 101 1508 73 1470 65 c 1
 1355 22 1225 0 1087 0 c 0
 1084 0 1079 0 1076 0 c 0
 933 1 804 27 691 79 c 0
 536 147 417 251 336 386 c 0
 268 497 236 621 236 759 c 0
 236 788 238 817 240 847 c 0
 269 1121 377 1332 566 1487 c 0
 724 1618 911 1681 1132 1681 c 0
 1176 1681 1221 1676 1267 1672 c 0
 1313 1668 1352 1644 1389 1600 c 0
 1426 1556 1453 1480 1477 1371 c 0
 1484 1338 1488 1306 1488 1277 c 0
 1488 1216 1469 1167 1435 1133 c 0
 1416 1114 1396 1105 1371 1104 c 0
 1340 1103 1306 1100 1275 1098 c 0
EndSplineSet
Validated: 1
EndChar

StartChar: D
Encoding: 68 68 15
Width: 1939
VWidth: 2237
GlyphClass: 1
Flags: W
HStem: 0 21G<674.5 821.5> 0 21G<674.5 821.5> 1666 20G<691 764> 1666 20G<691 764>
VStem: 236.5 565<671.782 1019.79> 1133.5 569<711.039 944.429>
LayerCount: 2
Fore
SplineSet
1256.5 100 m 0xac
 1089.5 32 913.5 0 729.5 0 c 0
 722.5 0 714.5 0 707.5 0 c 0
 641.5 1 577.5 6 517.5 14 c 0
 456.5 22 412.5 30 385.5 43 c 0
 342.5 61 310.5 147 285.5 303 c 0
 260.5 459 241.5 631 237.5 817 c 0
 236.5 861 236.5 901 236.5 943 c 0
 236.5 1081 245.5 1211 255.5 1335 c 0
 270.5 1496 296.5 1589 338.5 1614 c 0
 380.5 1640 441.5 1658 527.5 1671 c 0
 590.5 1679 657.5 1686 724.5 1686 c 0
 803.5 1686 884.5 1680 971.5 1667 c 0
 1129.5 1643 1262.5 1590 1373.5 1502 c 0
 1517.5 1386 1616.5 1230 1669.5 1038 c 0
 1690.5 958 1702.5 878 1702.5 801 c 0
 1702.5 693 1683.5 590 1640.5 491 c 0
 1560.5 301 1428.5 169 1256.5 100 c 0xac
805.5 805 m 0
 811.5 727 828.5 681 853.5 667 c 0
 862.5 661 878.5 659 902.5 659 c 0
 908.5 659 917.5 659 924.5 659 c 0
 980.5 660 1027.5 673 1068.5 698 c 0
 1109.5 723 1130.5 759 1133.5 806 c 0
 1133.5 812 1133.5 820 1133.5 824 c 0
 1133.5 876 1112.5 920 1069.5 958 c 0
 1022.5 1000 970.5 1024 918.5 1028 c 0
 914.5 1028 907.5 1028 903.5 1028 c 0
 887.5 1028 871.5 1026 856.5 1024 c 0
 834.5 1020 818.5 1007 812.5 983 c 0
 805.5 958 801.5 926 801.5 887 c 0
 801.5 863 802.5 835 805.5 805 c 0
EndSplineSet
Validated: 524289
EndChar

StartChar: E
Encoding: 69 69 16
Width: 1742
VWidth: 2237
GlyphClass: 1
Flags: W
HStem: 6 588<930 1421.43> 1134 546<912 1382.22>
VStem: 235 946<664.108 1043.37>
LayerCount: 2
Fore
SplineSet
1276 593 m 0
 1298 594 1320 594 1339 594 c 0
 1404 594 1444 586 1459 571 c 0
 1478 555 1493 485 1502 362 c 0
 1504 318 1507 277 1507 243 c 0
 1507 179 1501 133 1492 96 c 0
 1484 72 1427 53 1319 38 c 0
 1211 23 1094 10 959 6 c 0
 869 3 787 1 701 1 c 0
 658 1 617 1 575 2 c 0
 452 4 374 16 336 32 c 0
 314 40 298 100 284 210 c 0
 270 319 255 447 247 593 c 0
 239 737 236 888 235 1039 c 0
 235 1077 235 1114 235 1148 c 0
 235 1250 238 1337 240 1409 c 0
 240 1461 246 1510 254 1554 c 0
 262 1597 272 1626 291 1636 c 0
 310 1646 373 1656 484 1664 c 0
 595 1672 715 1678 842 1680 c 0
 864 1680 884 1680 905 1680 c 0
 1007 1680 1105 1675 1195 1671 c 0
 1304 1665 1367 1655 1383 1639 c 0
 1402 1623 1414 1560 1416 1449 c 0
 1416 1433 1417 1418 1417 1403 c 0
 1417 1314 1410 1247 1396 1199 c 0
 1388 1173 1337 1156 1243 1152 c 0
 1147 1146 1037 1137 912 1134 c 1
 912 1126 912 1117 913 1104 c 0
 914 1091 914 1082 915 1074 c 1
 996 1073 1064 1064 1116 1054 c 0
 1129 1052 1139 1030 1152 989 c 0
 1165 947 1173 907 1177 861 c 0
 1179 836 1181 813 1181 789 c 0
 1181 769 1179 748 1177 729 c 0
 1173 687 1158 666 1138 664 c 0
 1124 661 1100 656 1061 654 c 0
 1022 652 976 648 930 647 c 1
 930 638 930 626 930 613 c 0
 930 600 930 590 930 582 c 1
 1057 583 1175 589 1276 593 c 0
EndSplineSet
Validated: 1
EndChar

StartChar: F
Encoding: 70 70 17
Width: 1742
VWidth: 2237
GlyphClass: 1
Flags: W
HStem: 2 21G<589 744.5> 361 560<964 1302.93> 1030 647<964 1395.46>
LayerCount: 2
Fore
SplineSet
964 977 m 0
 964 953 964 935 964 921 c 1
 1048 920 1125 917 1194 913 c 0
 1263 909 1313 900 1339 894 c 0
 1364 886 1378 858 1386 806 c 0
 1389 776 1393 745 1393 712 c 0
 1393 688 1390 664 1388 639 c 0
 1384 579 1374 524 1359 473 c 0
 1344 421 1324 394 1305 391 c 0
 1261 381 1211 371 1147 368 c 0
 1095 365 1040 361 986 361 c 0
 976 361 963 361 950 361 c 1
 937 180 923 78 899 49 c 1
 883 20 808 4 681 2 c 0
 668 2 657 2 644 2 c 0
 534 2 455 15 404 37 c 0
 385 45 366 110 342 242 c 0
 318 373 299 525 280 694 c 0
 261 862 249 1028 241 1194 c 0
 238 1273 235 1344 235 1401 c 0
 235 1465 238 1514 242 1555 c 0
 246 1598 309 1626 424 1645 c 0
 539 1663 669 1675 810 1677 c 0
 847 1678 883 1677 917 1677 c 0
 1018 1677 1116 1674 1209 1670 c 0
 1334 1662 1412 1655 1437 1649 c 0
 1469 1641 1491 1607 1500 1542 c 0
 1504 1505 1507 1466 1507 1425 c 0
 1507 1394 1504 1364 1502 1332 c 0
 1494 1258 1482 1189 1463 1129 c 0
 1444 1068 1422 1035 1398 1033 c 0
 1344 1029 1280 1027 1203 1027 c 0
 1126 1027 1045 1028 964 1030 c 1
 964 1016 964 1001 964 977 c 0
EndSplineSet
Validated: 33
EndChar

StartChar: G
Encoding: 71 71 18
Width: 2072
VWidth: 2237
GlyphClass: 1
Flags: W
HStem: 7 877<1381.28 1797.36>
VStem: 235 605<697.432 1004.54>
LayerCount: 2
Fore
SplineSet
1034 1108 m 0
 963 1082 910 1041 879 986 c 0
 854 940 840 893 840 847 c 0
 840 837 841 825 842 815 c 0
 850 759 877 705 923 659 c 0
 969 613 1037 587 1125 584 c 0
 1127 584 1127 584 1129 584 c 0
 1189 584 1222 603 1229 644 c 0
 1237 686 1246 727 1250 769 c 1
 1250 770 1249 771 1249 772 c 0
 1249 798 1278 821 1332 840 c 0
 1388 859 1451 873 1522 879 c 0
 1549 881 1575 884 1601 884 c 0
 1643 884 1681 879 1719 875 c 0
 1779 867 1812 847 1815 818 c 0
 1823 764 1831 697 1834 611 c 0
 1836 542 1837 473 1837 406 c 0
 1837 391 1837 376 1837 361 c 0
 1836 280 1833 208 1829 144 c 0
 1823 80 1811 47 1798 37 c 0
 1785 22 1729 10 1625 8 c 0
 1605 8 1586 7 1567 7 c 0
 1491 7 1435 14 1398 24 c 0
 1392 24 1387 32 1381 42 c 1
 1279 17 1175 3 1075 3 c 0
 1048 3 1019 5 992 6 c 0
 767 24 580 113 429 271 c 0
 297 406 235 569 235 759 c 0
 235 790 237 825 240 858 c 0
 269 1112 361 1307 517 1449 c 0
 673 1591 872 1668 1109 1682 c 0
 1123 1682 1135 1683 1149 1683 c 0
 1291 1683 1422 1651 1538 1586 c 0
 1665 1514 1734 1384 1736 1198 c 0
 1736 1196 1736 1195 1736 1193 c 0
 1736 1167 1721 1144 1684 1126 c 0
 1645 1107 1598 1091 1546 1081 c 0
 1493 1071 1439 1061 1387 1059 c 0
 1361 1057 1339 1055 1320 1055 c 0
 1301 1055 1286 1057 1276 1059 c 0
 1246 1062 1230 1075 1230 1094 c 0
 1230 1095 1230 1095 1230 1096 c 0
 1230 1097 1230 1098 1230 1099 c 0
 1230 1117 1223 1127 1209 1129 c 0
 1200 1129 1189 1130 1181 1130 c 0
 1127 1130 1079 1123 1034 1108 c 0
EndSplineSet
Validated: 1
EndChar

StartChar: H
Encoding: 72 72 19
Width: 2052
VWidth: 2237
GlyphClass: 1
Flags: W
HStem: 0 21G<552.5 607> 0 21G<552.5 607> 1663 20G<532.5 640.5 1397.5 1437.5>
VStem: 234 692<1091.3 1613.79> 1126 692<1102.16 1609.89>
LayerCount: 2
Fore
SplineSet
668 2 m 0xb8
 642 1 618 0 596 0 c 0
 509 0 448 10 406 30 c 0
 382 40 358 115 336 254 c 0
 312 393 296 550 280 721 c 0
 264 892 249 1060 241 1221 c 0
 237 1322 234 1405 234 1462 c 0
 234 1494 235 1523 236 1542 c 0
 239 1587 277 1619 345 1643 c 0
 413 1667 492 1681 573 1683 c 0
 582 1683 596 1683 605 1683 c 0
 676 1683 740 1674 800 1659 c 0
 868 1641 908 1616 911 1579 c 0
 917 1515 923 1445 926 1359 c 0
 928 1273 935 1182 936 1088 c 1
 1000 1090 1061 1096 1129 1097 c 1
 1127 1165 1126 1230 1126 1294 c 0
 1126 1318 1127 1340 1127 1362 c 0
 1127 1446 1130 1518 1133 1579 c 0
 1135 1617 1171 1641 1239 1660 c 0
 1299 1675 1362 1686 1433 1686 c 0
 1442 1686 1455 1684 1464 1684 c 0
 1545 1682 1624 1670 1695 1646 c 0
 1764 1622 1803 1591 1809 1546 c 0
 1815 1503 1818 1429 1818 1320 c 0
 1818 1290 1817 1258 1817 1224 c 0
 1815 1063 1809 896 1801 725 c 0
 1792 553 1778 398 1762 259 c 0
 1746 120 1728 43 1706 33 c 0
 1663 13 1598 3 1508 3 c 0
 1488 3 1466 3 1444 4 c 0
 1321 8 1252 26 1237 55 c 0
 1224 70 1214 115 1201 189 c 0
 1188 263 1179 352 1170 456 c 1
 1128 448 1087 440 1045 436 c 0
 1002 430 964 422 922 418 c 1
 918 322 908 244 900 178 c 0
 892 112 885 69 876 54 c 0
 862 25 791 6 668 2 c 0xb8
EndSplineSet
Validated: 1
EndChar

StartChar: I
Encoding: 73 73 20
Width: 1243
VWidth: 2237
GlyphClass: 1
Flags: W
HStem: 0 21G<575 635.5> 0 21G<575 635.5> 1667 20G<649 693.5> 1667 20G<649 693.5>
VStem: 240.5 767<578.125 1614.92>
LayerCount: 2
Fore
SplineSet
695.5 1 m 0xa8
 670.5 0 646.5 0 624.5 0 c 0
 525.5 0 452.5 10 405.5 30 c 0
 380.5 40 357.5 115 333.5 254 c 0
 309.5 393 293.5 552 277.5 724 c 0
 261.5 895 248.5 1062 240.5 1223 c 0
 237.5 1300 235.5 1365 235.5 1417 c 0
 235.5 1473 237.5 1517 240.5 1546 c 0
 244.5 1590 285.5 1622 363.5 1646 c 0
 440.5 1670 523.5 1684 615.5 1686 c 0
 628.5 1686 642.5 1687 655.5 1687 c 0
 731.5 1687 801.5 1679 867.5 1664 c 0
 942.5 1646 984.5 1619 987.5 1581 c 0
 1000.5 1477 1005.5 1343 1006.5 1178 c 0
 1006.5 1151 1007.5 1124 1007.5 1097 c 0
 1007.5 961 1003.5 828 997.5 694 c 0
 991.5 535 983.5 394 969.5 271 c 0
 955.5 148 941.5 75 925.5 53 c 1
 910.5 23 832.5 5 695.5 1 c 0xa8
EndSplineSet
Validated: 524289
EndChar

StartChar: J
Encoding: 74 74 21
Width: 1985
VWidth: 2237
GlyphClass: 1
Flags: W
HStem: 0 21G<883 1035.5> 0 21G<883 1035.5> 1657 20G<1380.5 1417>
VStem: 1053.5 695<620.552 1460.44>
LayerCount: 2
Fore
SplineSet
1356.5 64 m 0xb0
 1231.5 22 1102.5 0 968.5 0 c 0
 965.5 0 956.5 0 953.5 0 c 0
 812.5 2 677.5 34 543.5 90 c 0
 408.5 146 324.5 239 282.5 362 c 0
 258.5 434 242.5 513 238.5 594 c 0
 236.5 626 236.5 659 236.5 690 c 0
 236.5 737 239.5 783 243.5 829 c 1
 243.5 885 271.5 931 335.5 958 c 0
 396.5 985 464.5 1002 538.5 1004 c 0
 548.5 1004 562.5 1005 572.5 1005 c 0
 632.5 1005 686.5 999 737.5 983 c 0
 793.5 964 825.5 940 825.5 908 c 0
 825.5 907 825.5 906 825.5 905 c 0
 826.5 879 825.5 848 825.5 814 c 0
 825.5 780 826.5 741 825.5 698 c 0
 825.5 697 825.5 696 825.5 695 c 0
 825.5 614 864.5 571 939.5 570 c 0
 941.5 570 942.5 570 943.5 570 c 0
 989.5 570 1018.5 587 1031.5 619 c 0
 1041.5 652 1051.5 692 1053.5 735 c 0
 1057.5 804 1060.5 873 1060.5 941 c 0
 1060.5 1033 1055.5 1124 1047.5 1213 c 0
 1034.5 1328 1030.5 1418 1030.5 1475 c 0
 1030.5 1495 1030.5 1510 1031.5 1524 c 0
 1033.5 1569 1067.5 1604 1131.5 1629 c 0
 1195.5 1654 1264.5 1672 1341.5 1676 c 0
 1357.5 1677 1372.5 1677 1388.5 1677 c 0
 1445.5 1677 1503.5 1669 1555.5 1659 c 0
 1622.5 1644 1663.5 1618 1673.5 1581 c 0
 1687.5 1529 1701.5 1443 1717.5 1320 c 0
 1733.5 1197 1743.5 1068 1747.5 929 c 0
 1748.5 890 1748.5 852 1748.5 814 c 0
 1748.5 717 1745.5 623 1736.5 533 c 0
 1722.5 408 1693.5 316 1648.5 262 c 0
 1582.5 172 1487.5 107 1356.5 64 c 0xb0
EndSplineSet
Validated: 524321
EndChar

StartChar: K
Encoding: 75 75 22
Width: 1945
VWidth: 2237
GlyphClass: 1
Flags: W
HStem: 0 22G<517.5 576 1428 1445> 0 22G<517.5 576 1428 1445> 1648 20G<650 691.5>
VStem: 235.5 729<1388 1602.15>
LayerCount: 2
Fore
SplineSet
1571.5 1089 m 0xb0
 1497.5 1001 1411.5 907 1314.5 807 c 1
 1470.5 728 1593.5 658 1686.5 594 c 0
 1702.5 584 1709.5 558 1709.5 525 c 0
 1709.5 509 1704.5 491 1701.5 469 c 0
 1688.5 402 1670.5 333 1640.5 262 c 0
 1610.5 191 1573.5 127 1531.5 74 c 0
 1494.5 27 1460.5 1 1429.5 1 c 0
 1426.5 1 1420.5 1 1417.5 2 c 0
 1379.5 10 1315.5 39 1221.5 84 c 0
 1127.5 129 1030.5 179 922.5 234 c 1
 908.5 136 893.5 75 879.5 56 c 0
 863.5 26 788.5 10 652.5 2 c 0
 620.5 0 589.5 0 562.5 0 c 0
 472.5 0 406.5 10 363.5 29 c 0
 338.5 39 318.5 115 299.5 254 c 0
 280.5 393 264.5 553 255.5 725 c 0
 245.5 897 238.5 1066 236.5 1227 c 0
 235.5 1275 235.5 1320 235.5 1359 c 0
 235.5 1449 236.5 1513 242.5 1552 c 0
 246.5 1585 289.5 1611 363.5 1630 c 0
 437.5 1649 513.5 1665 600.5 1667 c 0
 620.5 1668 640.5 1668 659.5 1668 c 0
 723.5 1668 784.5 1662 839.5 1653 c 0
 910.5 1640 947.5 1623 949.5 1596 c 0
 951.5 1566 958.5 1532 960.5 1499 c 0
 962.5 1467 963.5 1430 964.5 1388 c 1
 1050.5 1459 1127.5 1515 1198.5 1559 c 0
 1255.5 1596 1299.5 1615 1324.5 1615 c 0
 1328.5 1615 1334.5 1614 1337.5 1613 c 0
 1393.5 1587 1464.5 1530 1551.5 1441 c 0
 1635.5 1354 1677.5 1297 1677.5 1267 c 0
 1677.5 1266 1676.5 1266 1676.5 1265 c 0
 1676.5 1264 1677.5 1263 1677.5 1262 c 0
 1677.5 1232 1642.5 1175 1571.5 1089 c 0xb0
EndSplineSet
Validated: 524289
EndChar

StartChar: L
Encoding: 76 76 23
Width: 1733
VWidth: 2237
GlyphClass: 1
Flags: W
HStem: 1 1679<342.722 883.257> 1 690<925.202 1398.39>
VStem: 235 678<720.451 1610.43>
LayerCount: 2
Fore
SplineSet
909 1421 m 0xa0
 910 1328 912 1230 913 1130 c 0
 914 1030 915 939 917 859 c 0
 918 778 923 729 925 720 c 0
 929 704 953 695 997 694 c 0
 1013 693 1032 691 1050 691 c 0x60
 1079 691 1112 694 1144 695 c 0
 1197 697 1249 702 1298 704 c 0
 1314 705 1328 705 1341 705 c 0
 1367 705 1386 702 1399 699 c 0
 1425 691 1448 652 1464 585 c 0
 1480 517 1493 446 1497 368 c 0
 1498 343 1498 320 1498 296 c 0
 1498 244 1494 194 1488 149 c 0
 1480 82 1465 47 1440 43 c 0
 1402 34 1329 24 1218 16 c 0
 1106 8 989 2 866 1 c 0
 850 1 833 1 818 1 c 0
 714 1 613 6 520 13 c 0
 412 21 350 39 325 65 c 0
 300 91 282 178 268 321 c 0
 254 464 244 622 241 793 c 0
 238 926 235 1051 235 1173 c 0
 235 1211 235 1246 235 1284 c 0
 236 1440 240 1540 244 1591 c 0
 246 1621 281 1643 349 1657 c 0
 417 1671 492 1679 571 1680 c 0
 650 1680 726 1673 794 1660 c 0
 861 1647 897 1632 899 1612 c 0
 901 1579 907 1514 909 1421 c 0xa0
EndSplineSet
Validated: 1
EndChar

StartChar: M
Encoding: 77 77 24
Width: 2596
VWidth: 2237
GlyphClass: 1
Flags: HMW
LayerCount: 2
Fore
SplineSet
1506.5 1391 m 4
 1573.5 1488 1633.5 1563 1685.5 1612 c 4
 1709.5 1634 1750.5 1651 1816.5 1660 c 4
 1873.5 1668 1935.5 1675 1999.5 1675 c 4
 2006.5 1675 2014.5 1674 2021.5 1674 c 4
 2092.5 1673 2158.5 1667 2214.5 1658 c 4
 2270.5 1649 2306.5 1634 2314.5 1615 c 4
 2328.5 1584 2340.5 1489 2348.5 1333 c 4
 2356.5 1176 2359.5 1007 2359.5 824 c 4
 2359.5 641 2355.5 474 2347.5 318 c 4
 2339.5 162 2323.5 71 2304.5 42 c 4
 2289.5 24 2215.5 11 2080.5 8 c 4
 2035.5 7 1997.5 4 1960.5 4 c 4
 1888.5 4 1836.5 9 1799.5 16 c 4
 1777.5 19 1759.5 83 1740.5 205 c 4
 1721.5 327 1708.5 449 1702.5 573 c 5
 1688.5 558 1662.5 533 1624.5 492 c 4
 1585.5 451 1546.5 414 1503.5 372 c 4
 1460.5 330 1421.5 292 1380.5 261 c 4
 1338.5 230 1311.5 213 1292.5 213 c 4
 1273.5 213 1245.5 230 1206.5 260 c 4
 1167.5 290 1128.5 324 1086.5 366 c 4
 1044.5 407 1008.5 441 971.5 480 c 4
 934.5 519 910.5 546 896.5 560 c 5
 888.5 444 874.5 325 856.5 205 c 4
 838.5 85 821.5 22 801.5 16 c 4
 774.5 8 733.5 3 680.5 2 c 4
 649.5 1 618.5 1 587.5 1 c 4
 565.5 1 541.5 1 517.5 2 c 4
 463.5 4 415.5 10 372.5 18 c 4
 328.5 24 301.5 34 297.5 42 c 4
 278.5 69 262.5 163 253.5 321 c 4
 244.5 479 237.5 652 236.5 836 c 4
 236.5 867 236.5 895 236.5 925 c 4
 236.5 1073 238.5 1214 244.5 1346 c 4
 250.5 1502 263.5 1591 278.5 1616 c 4
 288.5 1634 325.5 1650 381.5 1659 c 4
 437.5 1668 503.5 1675 572.5 1676 c 4
 641.5 1676 710.5 1669 775.5 1660 c 4
 840.5 1651 881.5 1634 905.5 1612 c 4
 957.5 1563 1018.5 1488 1086.5 1391 c 4
 1154.5 1294 1224.5 1192 1295.5 1084 c 5
 1367.5 1192 1438.5 1294 1506.5 1391 c 4
EndSplineSet
Validated: 524289
EndChar

StartChar: N
Encoding: 78 78 25
Width: 2093
VWidth: 2237
GlyphClass: 1
Flags: W
HStem: 2 21G<582.5 640 1531.5 1558> 1652 29G<556.5 588 1475 1590> 1661 20G<1475 1590>
VStem: 302.5 542<32.4065 390.188>
LayerCount: 2
Fore
SplineSet
1739.5 19 m 0xd0
 1695.5 11 1647.5 4 1595.5 3 c 0
 1580.5 2 1565.5 2 1550.5 2 c 0
 1512.5 2 1476.5 6 1442.5 8 c 0
 1393.5 11 1361.5 19 1343.5 27 c 0
 1318.5 37 1280.5 67 1234.5 113 c 0
 1188.5 159 1139.5 212 1090.5 266 c 0
 1041.5 320 994.5 374 952.5 423 c 0
 910.5 470 887.5 503 877.5 518 c 1
 867.5 387 857.5 277 844.5 184 c 0
 831.5 91 818.5 40 799.5 32 c 0
 756.5 12 686.5 2 593.5 2 c 0
 571.5 2 547.5 2 521.5 3 c 0
 387.5 7 316.5 26 302.5 56 c 1
 286.5 78 271.5 153 261.5 277 c 0
 248.5 401 239.5 545 237.5 706 c 0
 235.5 786 235.5 868 235.5 949 c 0
 235.5 1030 235.5 1114 237.5 1198 c 0
 240.5 1365 253.5 1499 269.5 1603 c 0
 271.5 1623 298.5 1642 347.5 1652 c 0
 394.5 1662 451.5 1669 515.5 1671 c 0
 531.5 1672 548.5 1672 564.5 1672 c 0
 611.5 1672 658.5 1669 705.5 1665 c 0
 769.5 1657 817.5 1647 850.5 1633 c 0
 901.5 1609 965.5 1549 1040.5 1452 c 0
 1115.5 1354 1172.5 1279 1205.5 1228 c 1
 1203.5 1306 1199.5 1376 1197.5 1436 c 0
 1196.5 1466 1196.5 1493 1196.5 1515 c 0
 1196.5 1537 1196.5 1554 1197.5 1569 c 0
 1198.5 1606 1232.5 1630 1298.5 1649 c 0
 1364.5 1667 1435.5 1679 1514.5 1681 c 0
 1529.5 1681 1544.5 1681 1559.5 1681 c 0
 1620.5 1681 1679.5 1675 1732.5 1665 c 0
 1798.5 1651 1832.5 1629 1834.5 1603 c 0
 1844.5 1495 1854.5 1361 1856.5 1194 c 0
 1857.5 1110 1857.5 1025 1857.5 944 c 0
 1857.5 863 1857.5 781 1856.5 701 c 0
 1854.5 540 1848.5 396 1840.5 273 c 0
 1832.5 150 1826.5 75 1818.5 56 c 0
 1810.5 38 1783.5 27 1739.5 19 c 0xd0
EndSplineSet
Validated: 524289
EndChar

StartChar: O
Encoding: 79 79 26
Width: 2180
VWidth: 2237
GlyphClass: 1
Flags: W
HStem: 0 628<948.781 1229.63> 1666 20G<963.5 1072> 1666 20G<963.5 1072>
LayerCount: 2
Fore
SplineSet
1598 163 m 0xc0
 1455 54 1294 0 1114 0 c 0
 1062 0 1006 6 951 14 c 0
 715 55 532 164 396 350 c 0
 288 496 235 657 235 828 c 0
 235 874 238 922 245 969 c 0
 278 1179 383 1356 552 1498 c 0
 699 1623 868 1686 1059 1686 c 0
 1085 1686 1111 1684 1138 1682 c 0
 1409 1658 1619 1557 1768 1375 c 0
 1887 1233 1945 1067 1945 879 c 0
 1945 827 1939 774 1931 719 c 0
 1892 488 1782 304 1598 163 c 0xc0
1269 971 m 0
 1236 1016 1186 1043 1121 1053 c 0
 1107 1055 1094 1055 1081 1055 c 0
 1035 1055 995 1043 958 1014 c 0
 912 977 883 929 875 874 c 0
 873 860 871 849 871 836 c 0
 871 784 889 738 930 695 c 0
 973 650 1025 628 1085 628 c 0
 1094 628 1106 628 1115 629 c 0
 1166 633 1208 656 1241 689 c 0
 1274 722 1295 765 1303 811 c 0
 1305 826 1308 840 1308 854 c 0
 1308 898 1295 938 1269 971 c 0
EndSplineSet
Validated: 1
EndChar

StartChar: P
Encoding: 80 80 27
Width: 1838
VWidth: 2237
GlyphClass: 1
Flags: W
HStem: 1 21G<535.5 595.5> 1 21G<535.5 595.5> 1181 493<697.913 1079.41>
VStem: 1126.5 477<894.439 1134.63>
LayerCount: 2
Fore
SplineSet
1370.5 513 m 0xb0
 1262.5 419 1138.5 370 994.5 370 c 0
 974.5 370 956.5 371 936.5 372 c 1
 930.5 286 920.5 215 912.5 159 c 0
 903.5 103 891.5 67 881.5 53 c 0
 866.5 24 793.5 6 658.5 2 c 0
 632.5 1 607.5 1 583.5 1 c 0
 487.5 1 418.5 10 373.5 30 c 0
 348.5 40 325.5 113 306.5 249 c 0
 287.5 384 273.5 536 260.5 705 c 0
 247.5 874 237.5 1038 235.5 1194 c 0
 234.5 1259 234.5 1314 234.5 1361 c 0
 234.5 1428 235.5 1476 238.5 1507 c 0
 242.5 1556 286.5 1596 365.5 1622 c 0
 444.5 1648 537.5 1664 639.5 1670 c 0
 678.5 1672 715.5 1674 754.5 1674 c 0
 820.5 1674 888.5 1671 955.5 1664 c 0
 1063.5 1651 1145.5 1635 1202.5 1610 c 0
 1469.5 1498 1603.5 1311 1603.5 1051 c 0
 1603.5 1008 1600.5 964 1593.5 917 c 0
 1568.5 756 1492.5 622 1370.5 513 c 0xb0
962.5 1179 m 0
 954.5 1180 946.5 1181 939.5 1181 c 0
 932.5 1181 926.5 1180 922.5 1179 c 0
 858.5 1169 826.5 1126 826.5 1052 c 0
 826.5 1045 827.5 1037 827.5 1030 c 0
 833.5 942 854.5 886 896.5 860 c 0
 906.5 853 922.5 847 941.5 847 c 0
 950.5 847 963.5 848 976.5 850 c 0
 1029.5 858 1069.5 880 1096.5 919 c 0
 1116.5 946 1126.5 978 1126.5 1011 c 0
 1126.5 1021 1125.5 1035 1123.5 1048 c 0
 1107.5 1127 1052.5 1170 962.5 1179 c 0
EndSplineSet
Validated: 524289
EndChar

StartChar: Q
Encoding: 81 81 28
Width: 2540
VWidth: 2237
GlyphClass: 1
Flags: W
HStem: 0 21G<826.5 917.5> 0 21G<826.5 917.5> 1059 629<798.428 1020.97>
VStem: 234.5 499<695.564 994.986> 1075.5 503<684.666 1004.3> 1627.5 100<81.9006 700.575> 1783.5 137<323.105 708.568> 2012.5 134<324.824 717.111> 2164.5 115<21.7562 91.6236 93.218 385.299 389.156 700.296> 2206.5 99<93.218 696.753>
LayerCount: 2
Fore
SplineSet
1528.5 531 m 1xbf
 1572.5 465 1595.5 415 1596.5 384 c 0
 1596.5 383 1596.5 382 1596.5 381 c 0
 1596.5 355 1566.5 297 1501.5 205 c 0
 1435.5 109 1385.5 47 1346.5 20 c 0
 1342.5 17 1332.5 14 1324.5 14 c 0
 1314.5 14 1301.5 18 1286.5 25 c 0
 1259.5 38 1226.5 54 1194.5 79 c 1
 1130.5 40 1064.5 14 986.5 4 c 0
 959.5 1 930.5 0 904.5 0 c 0
 748.5 0 611.5 64 487.5 189 c 0
 343.5 336 257.5 521 238.5 748 c 0
 236.5 780 234.5 812 234.5 844 c 0
 234.5 1027 280.5 1198 376.5 1357 c 0
 488.5 1544 635.5 1652 818.5 1681 c 0
 851.5 1685 883.5 1688 915.5 1688 c 0
 995.5 1688 1072.5 1671 1143.5 1638 c 0
 1242.5 1592 1328.5 1523 1396.5 1433 c 0
 1464.5 1343 1516.5 1234 1548.5 1110 c 0
 1568.5 1031 1578.5 949 1578.5 861 c 0
 1578.5 815 1576.5 767 1570.5 719 c 0
 1561.5 652 1546.5 587 1528.5 531 c 1xbf
927.5 1054 m 0
 917.5 1056 904.5 1059 895.5 1059 c 0
 852.5 1059 817.5 1038 784.5 995 c 0
 751.5 950 733.5 901 733.5 846 c 0
 733.5 838 733.5 827 734.5 818 c 0
 738.5 762 758.5 715 795.5 676 c 0
 826.5 645 860.5 628 902.5 628 c 0
 909.5 628 918.5 628 925.5 629 c 0
 1011.5 642 1056.5 703 1070.5 813 c 0
 1072.5 832 1075.5 848 1075.5 864 c 0
 1075.5 968 1024.5 1033 927.5 1054 c 0
2029.5 713 m 4
 2043.5 717 2055.5 720 2070.5 720 c 4
 2085.5 720 2100.5 716 2114.5 713 c 4
 2128.5 709 2136.5 701 2138.5 691 c 4
 2140.5 675 2144.5 650 2145.5 611 c 4
 2146.5 589 2146.5 564 2146.5 539 c 4
 2146.5 521 2145.5 505 2145.5 486 c 4
 2144.5 441 2140.5 397 2138.5 354 c 4
 2136.5 310 2130.5 277 2124.5 251 c 4
 2110.5 198 2092.5 154 2067.5 121 c 4
 2042.5 87 2012.5 67 1979.5 64 c 4
 1976.5 64 1971.5 63 1968.5 63 c 4
 1930.5 63 1897.5 82 1865.5 120 c 4
 1831.5 163 1804.5 220 1790.5 289 c 4
 1786.5 311 1785.5 346 1783.5 389 c 4
 1781.5 433 1780.5 475 1780.5 519 c 4
 1780.5 564 1782.5 603 1784.5 640 c 4
 1786.5 677 1791.5 700 1795.5 709 c 4
 1798.5 717 1810.5 723 1824.5 725 c 4
 1833.5 726 1844.5 727 1854.5 727 c 4
 1857.5 727 1862.5 727 1865.5 727 c 4
 1880.5 725 1894.5 723 1907.5 717 c 4
 1917.5 713 1924.5 705 1924.5 698 c 4
 1924.5 676 1923.5 645 1921.5 603 c 4
 1920.5 579 1920.5 555 1920.5 531 c 4
 1920.5 513 1920.5 495 1920.5 479 c 4
 1921.5 437 1923.5 404 1929.5 373 c 4
 1935.5 342 1945.5 325 1959.5 323 c 4
 1960.5 323 1965.5 322 1966.5 322 c 4
 1980.5 322 1989.5 335 1995.5 362 c 4
 2001.5 393 2006.5 429 2008.5 472 c 4
 2009.5 503 2012.5 535 2012.5 566 c 4
 2012.5 576 2012.5 592 2012.5 602 c 4
 2012.5 631 2011.5 653 2011.5 672 c 4
 2011.5 681 2012.5 690 2012.5 696 c 4
 2012.5 704 2016.5 709 2029.5 713 c 4
1653.5 147 m 4
 1635.5 212 1628.5 287 1627.5 371 c 4
 1627.5 377 1627.5 383 1627.5 389 c 4
 1627.5 466 1632.5 537 1645.5 602 c 4
 1649.5 628 1656.5 656 1663.5 682 c 4
 1670.5 708 1681.5 730 1691.5 749 c 4
 1701.5 769 1716.5 779 1731.5 779 c 4
 1733.5 779 1736.5 777 1738.5 777 c 4
 1752.5 774 1760.5 760 1767.5 738 c 4
 1770.5 725 1773.5 714 1773.5 701 c 4
 1773.5 692 1771.5 679 1769.5 670 c 4
 1740.5 559 1727.5 470 1727.5 403 c 4
 1727.5 389 1729.5 375 1730.5 362 c 4
 1737.5 293 1745.5 234 1758.5 191 c 4
 1765.5 162 1772.5 136 1774.5 110 c 4
 1774.5 107 1774.5 101 1774.5 98 c 4
 1774.5 77 1768.5 59 1755.5 44 c 4
 1747.5 36 1739.5 30 1731.5 30 c 4
 1723.5 30 1709.5 36 1701.5 44 c 4
 1682.5 65 1667.5 98 1653.5 147 c 4
2177.5 27 m 4
 2171.5 37 2166.5 51 2164.5 66 c 4x3f80
 2163.5 74 2163.5 84 2163.5 92 c 4
 2163.5 118 2166.5 143 2173.5 172 c 4
 2186.5 215 2197.5 276 2204.5 345 c 4
 2205.5 359 2206.5 371 2206.5 386 c 4x3f40
 2206.5 453 2193.5 541 2164.5 651 c 4x3f80
 2160.5 670 2157.5 686 2157.5 701 c 4
 2157.5 705 2158.5 709 2158.5 713 c 4
 2162.5 744 2173.5 759 2191.5 759 c 4
 2193.5 759 2198.5 759 2201.5 758 c 4
 2223.5 752 2239.5 736 2249.5 712 c 4
 2257.5 694 2266.5 674 2272.5 652 c 4
 2278.5 630 2284.5 606 2288.5 582 c 4
 2298.5 517 2305.5 448 2305.5 371 c 4
 2305.5 365 2305.5 357 2305.5 351 c 4x3f40
 2304.5 267 2297.5 196 2279.5 131 c 4x3f80
 2259.5 57 2235.5 16 2206.5 9 c 4x3f40
 2205.5 9 2204.5 8 2203.5 8 c 4
 2195.5 8 2184.5 14 2177.5 27 c 4
EndSplineSet
Validated: 524289
EndChar

StartChar: R
Encoding: 82 82 29
Width: 1925
VWidth: 2237
GlyphClass: 1
Flags: W
HStem: 1 21G<468 590> 1 21G<468 590> 1211 500<587 980.726>
VStem: 235 512<926.869 1202.65> 1035 508<968.922 1174.08>
LayerCount: 2
Fore
SplineSet
1604 522 m 0xb8
 1659 466 1689 421 1690 391 c 0
 1690 371 1677 338 1652 296 c 0
 1627 254 1602 213 1571 171 c 0
 1540 129 1509 95 1479 64 c 0
 1449 33 1428 15 1418 15 c 0
 1412 14 1405 14 1398 14 c 0
 1352 14 1292 40 1214 89 c 0
 1124 146 1048 186 993 205 c 0
 974 211 958 214 945 214 c 0
 921 214 906 204 904 184 c 1
 904 180 904 173 904 169 c 0
 904 124 900 90 892 65 c 0
 883 38 845 20 784 14 c 0
 715 6 635 2 545 1 c 0
 530 1 515 1 501 1 c 0
 435 1 394 4 374 8 c 0
 358 10 342 21 333 37 c 0
 319 56 302 146 286 307 c 0
 270 468 254 641 245 830 c 0
 238 989 235 1136 235 1273 c 0
 235 1299 235 1326 235 1351 c 0
 236 1508 245 1589 267 1602 c 0
 346 1647 452 1679 587 1698 c 0
 643 1706 702 1711 758 1711 c 0
 834 1711 910 1704 986 1688 c 0
 1120 1662 1237 1608 1341 1524 c 0
 1443 1443 1508 1323 1532 1164 c 0
 1538 1119 1543 1078 1543 1037 c 0
 1543 889 1497 777 1408 702 c 1
 1482 638 1549 578 1604 522 c 0xb8
987 971 m 0
 1017 1008 1035 1042 1035 1081 c 0
 1034 1120 1015 1151 982 1178 c 0
 955 1199 916 1211 867 1211 c 0
 852 1211 837 1209 819 1207 c 0
 771 1203 747 1165 747 1098 c 0
 747 1083 748 1067 750 1048 c 0
 760 955 795 909 848 909 c 0
 851 909 855 909 858 909 c 0
 913 913 957 934 987 971 c 0
EndSplineSet
Validated: 1
EndChar

StartChar: S
Encoding: 83 83 30
Width: 1789
VWidth: 2237
GlyphClass: 1
Flags: W
HStem: 15 491<800.122 980.933> 1254 475<780.553 960.427>
LayerCount: 2
Fore
SplineSet
985 1165 m 0
 970 1175 961 1185 961 1199 c 0
 960 1213 953 1226 939 1236 c 0
 924 1249 906 1254 887 1254 c 0
 862 1254 833 1243 801 1221 c 0
 781 1207 771 1193 771 1183 c 0
 771 1162 804 1144 870 1130 c 0
 880 1128 890 1128 904 1126 c 0
 918 1124 932 1120 946 1118 c 0
 1113 1089 1246 1038 1343 967 c 0
 1463 879 1532 767 1551 626 c 0
 1553 605 1554 583 1554 562 c 0
 1554 447 1511 339 1431 245 c 0
 1318 113 1164 38 971 19 c 0
 940 17 909 15 879 15 c 0
 723 15 587 55 468 141 c 0
 346 227 267 336 237 463 c 0
 235 471 235 482 235 490 c 0
 235 538 267 579 331 606 c 0
 363 621 399 632 441 638 c 0
 482 644 516 650 553 650 c 0
 613 650 667 642 714 628 c 0
 761 614 790 593 796 567 c 0
 797 564 800 557 802 553 c 0
 810 535 824 521 848 513 c 0
 858 509 872 506 886 506 c 0
 905 506 923 510 944 517 c 0
 969 526 982 542 982 561 c 0
 982 569 977 580 973 589 c 0
 965 605 943 619 906 628 c 0
 820 653 741 671 655 685 c 0
 569 698 487 734 412 789 c 0
 358 830 316 880 286 948 c 0
 262 999 252 1066 252 1143 c 0
 252 1168 252 1195 254 1222 c 0
 268 1376 338 1500 472 1598 c 0
 550 1654 638 1695 737 1714 c 0
 786 1723 835 1729 883 1729 c 0
 931 1729 981 1723 1027 1714 c 0
 1120 1695 1202 1654 1277 1598 c 0
 1351 1542 1403 1461 1432 1365 c 0
 1434 1356 1438 1347 1438 1339 c 0
 1438 1314 1428 1290 1404 1271 c 0
 1373 1244 1327 1223 1281 1205 c 0
 1235 1187 1186 1174 1137 1166 c 0
 1088 1158 1052 1153 1027 1152 c 0
 1026 1152 1021 1152 1020 1152 c 0
 1006 1152 995 1158 985 1165 c 0
EndSplineSet
Validated: 1
EndChar

StartChar: T
Encoding: 84 84 31
Width: 2120
VWidth: 2237
GlyphClass: 1
Flags: W
HStem: 0 21G<1046 1074.5> 0 21G<1046 1074.5> 973 698<288.901 696.997 1430.5 1813.08>
LayerCount: 2
Fore
SplineSet
1275.5 18 m 0xa0
 1230.5 10 1180.5 3 1125.5 1 c 0
 1105.5 0 1084.5 0 1064.5 0 c 0
 1027.5 0 994.5 1 957.5 3 c 0
 902.5 6 860.5 17 831.5 30 c 0
 801.5 44 774.5 149 750.5 350 c 0
 725.5 553 707.5 757 694.5 963 c 1
 585.5 965 496.5 971 418.5 979 c 0
 340.5 988 296.5 1001 288.5 1019 c 0
 274.5 1046 263.5 1092 254.5 1153 c 0
 245.5 1217 237.5 1278 235.5 1343 c 0
 234.5 1372 234.5 1399 234.5 1425 c 0
 234.5 1457 234.5 1489 236.5 1518 c 0
 238.5 1570 250.5 1601 264.5 1609 c 0
 284.5 1625 356.5 1639 478.5 1648 c 0
 600.5 1657 740.5 1667 898.5 1669 c 0
 999.5 1671 1104.5 1672 1207.5 1672 c 0
 1263.5 1672 1325.5 1672 1381.5 1671 c 0
 1544.5 1670 1680.5 1666 1784.5 1660 c 0
 1826.5 1658 1852.5 1621 1867.5 1553 c 0
 1877.5 1500 1885.5 1442 1885.5 1379 c 0
 1885.5 1361 1885.5 1346 1884.5 1328 c 0
 1881.5 1247 1867.5 1169 1847.5 1101 c 0
 1827.5 1033 1801.5 998 1771.5 996 c 0
 1744.5 993 1699.5 987 1638.5 984 c 0
 1577.5 982 1507.5 975 1430.5 973 c 1
 1428.5 768 1422.5 570 1408.5 379 c 0
 1394.5 189 1378.5 79 1358.5 52 c 0
 1350.5 38 1320.5 26 1275.5 18 c 0xa0
EndSplineSet
Validated: 524289
EndChar

StartChar: U
Encoding: 85 85 32
Width: 2175
VWidth: 2237
GlyphClass: 1
Flags: W
HStem: 1 649<974.732 1204.29> 1647 20G<540 574.5>
VStem: 236.5 648<768.814 1585.68> 1311.5 627<824.587 1573.15>
LayerCount: 2
Fore
SplineSet
1398.5 1630 m 0
 1454.5 1643 1522.5 1648 1593.5 1648 c 0
 1600.5 1648 1607.5 1648 1614.5 1648 c 0
 1678.5 1648 1736.5 1643 1791.5 1633 c 0
 1855.5 1620 1891.5 1601 1901.5 1575 c 0
 1916.5 1536 1927.5 1471 1933.5 1375 c 0
 1936.5 1311 1938.5 1243 1938.5 1172 c 0
 1938.5 1135 1937.5 1100 1936.5 1062 c 0
 1933.5 950 1923.5 841 1908.5 732 c 0
 1892.5 623 1869.5 540 1840.5 476 c 0
 1779.5 341 1689.5 234 1573.5 148 c 0
 1457.5 62 1321.5 16 1170.5 3 c 0
 1149.5 2 1126.5 1 1105.5 1 c 0
 938.5 1 782.5 50 636.5 144 c 0
 470.5 252 356.5 391 292.5 570 c 0
 272.5 626 255.5 709 247.5 818 c 0
 239.5 912 236.5 1009 236.5 1106 c 0
 236.5 1120 236.5 1134 236.5 1148 c 0
 237.5 1259 242.5 1358 255.5 1448 c 0
 268.5 1538 284.5 1597 309.5 1622 c 0
 329.5 1641 372.5 1654 437.5 1660 c 0
 478.5 1663 518.5 1667 561.5 1667 c 0
 587.5 1667 613.5 1666 640.5 1665 c 0
 708.5 1663 771.5 1653 825.5 1639 c 0
 878.5 1626 905.5 1610 905.5 1591 c 0
 904.5 1535 901.5 1454 893.5 1353 c 0
 889.5 1288 884.5 1221 884.5 1155 c 0
 884.5 1117 887.5 1083 888.5 1046 c 0
 890.5 946 904.5 855 931.5 777 c 0
 957.5 699 1007.5 659 1075.5 651 c 0
 1082.5 650 1088.5 650 1094.5 650 c 0
 1158.5 650 1205.5 683 1235.5 752 c 0
 1266.5 830 1289.5 919 1298.5 1027 c 0
 1305.5 1113 1311.5 1195 1311.5 1281 c 0
 1311.5 1303 1310.5 1325 1310.5 1346 c 0
 1309.5 1399 1309.5 1445 1309.5 1486 c 0
 1309.5 1527 1309.5 1560 1310.5 1586 c 0
 1311.5 1605 1342.5 1620 1398.5 1630 c 0
EndSplineSet
Validated: 524289
EndChar

StartChar: V
Encoding: 86 86 33
Width: 2343
VWidth: 2237
GlyphClass: 1
Flags: W
HStem: 0 21G<1160 1213> 0 21G<1160 1213> 1651 20G<748 776.5 1554.5 1583>
LayerCount: 2
Fore
SplineSet
1340.5 1339 m 0xa0
 1396.5 1462 1450.5 1563 1495.5 1638 c 0
 1509.5 1662 1533.5 1671 1575.5 1671 c 0
 1590.5 1671 1608.5 1670 1627.5 1668 c 0
 1698.5 1655 1769.5 1632 1844.5 1599 c 0
 1918.5 1566 1986.5 1522 2041.5 1475 c 0
 2086.5 1436 2108.5 1398 2108.5 1364 c 0
 2108.5 1357 2104.5 1348 2102.5 1341 c 0
 2087.5 1292 2050.5 1198 1989.5 1059 c 0
 1928.5 920 1862.5 776 1788.5 627 c 0
 1714.5 478 1643.5 343 1575.5 221 c 0
 1507.5 99 1459.5 33 1429.5 19 c 0
 1415.5 13 1384.5 5 1338.5 3 c 0
 1292.5 1 1239.5 0 1186.5 0 c 0
 1133.5 0 1084.5 2 1038.5 4 c 0
 992.5 6 961.5 15 947.5 19 c 0
 917.5 33 867.5 96 799.5 210 c 0
 731.5 324 656.5 459 581.5 603 c 0
 504.5 747 435.5 891 370.5 1032 c 0
 304.5 1173 260.5 1276 238.5 1341 c 0
 236.5 1349 234.5 1358 234.5 1366 c 0
 234.5 1399 255.5 1436 298.5 1475 c 0
 351.5 1522 414.5 1566 488.5 1599 c 0
 562.5 1632 634.5 1655 705.5 1668 c 0
 724.5 1670 740.5 1671 755.5 1671 c 0
 797.5 1671 825.5 1662 839.5 1638 c 0
 899.5 1537 958.5 1425 1013.5 1309 c 0
 1068.5 1193 1123.5 1076 1176.5 965 c 1
 1229.5 1088 1284.5 1216 1340.5 1339 c 0xa0
EndSplineSet
Validated: 524289
EndChar

StartChar: W
Encoding: 87 87 34
Width: 2474
VWidth: 2237
GlyphClass: 1
Flags: W
HStem: 1 21G<1741.5 1843.5> 1 21G<1741.5 1843.5> 1661 20G<613 688.5 1781.5 1981.5> 1661 20G<613 688.5 1781.5 1981.5>
LayerCount: 2
Fore
SplineSet
2002.5 18 m 0xa0
 1946.5 9 1879.5 2 1807.5 1 c 0
 1794.5 1 1784.5 1 1771.5 1 c 0
 1711.5 1 1654.5 3 1600.5 9 c 0
 1533.5 15 1492.5 28 1473.5 46 c 0
 1443.5 70 1407.5 110 1362.5 166 c 0
 1317.5 221 1285.5 266 1260.5 298 c 1
 1231.5 257 1198.5 213 1161.5 166 c 0
 1124.5 117 1092.5 76 1055.5 46 c 0
 1036.5 30 992.5 19 927.5 13 c 0
 876.5 10 823.5 4 769.5 4 c 0
 754.5 4 739.5 4 723.5 4 c 0
 651.5 5 581.5 12 525.5 20 c 0
 468.5 29 433.5 41 429.5 56 c 0
 385.5 157 351.5 294 322.5 460 c 0
 293.5 625 271.5 786 257.5 947 c 0
 242.5 1108 234.5 1253 234.5 1376 c 0
 234.5 1389 234.5 1401 234.5 1411 c 0
 234.5 1512 241.5 1575 251.5 1597 c 0
 255.5 1611 282.5 1625 328.5 1639 c 0
 374.5 1653 426.5 1662 483.5 1670 c 0
 534.5 1676 587.5 1681 638.5 1681 c 0
 645.5 1681 653.5 1681 660.5 1681 c 0
 716.5 1681 763.5 1674 793.5 1660 c 0
 822.5 1646 845.5 1560 870.5 1401 c 0
 894.5 1240 919.5 1070 945.5 888 c 1
 965.5 910 1018.5 964 1097.5 1053 c 0
 1176.5 1141 1232.5 1188 1261.5 1190 c 0
 1262.5 1190 1261.5 1190 1262.5 1190 c 0
 1287.5 1190 1335.5 1144 1407.5 1053 c 0
 1479.5 961 1526.5 905 1542.5 886 c 1
 1561.5 1068 1580.5 1239 1604.5 1400 c 0
 1628.5 1561 1650.5 1646 1679.5 1660 c 0
 1708.5 1674 1753.5 1681 1809.5 1681 c 0
 1816.5 1681 1825.5 1681 1832.5 1681 c 0
 1981.5 1670 l 0
 2037.5 1662 2091.5 1653 2137.5 1639 c 0
 2183.5 1625 2211.5 1611 2215.5 1597 c 0
 2229.5 1572 2236.5 1500 2238.5 1377 c 0
 2238.5 1352 2239.5 1325 2239.5 1298 c 0
 2239.5 1195 2234.5 1075 2227.5 948 c 0
 2218.5 787 2201.5 628 2181.5 462 c 0
 2159.5 296 2131.5 160 2099.5 56 c 0
 2095.5 40 2058.5 27 2002.5 18 c 0xa0
EndSplineSet
Validated: 524289
EndChar

StartChar: X
Encoding: 88 88 35
Width: 2146
VWidth: 2237
GlyphClass: 1
Flags: W
HStem: -1 21G<662 687> 1655 20G<1526 1534.5> 1672 20G<681.5 704 1526 1534.5>
LayerCount: 2
Fore
SplineSet
1601.5 1639 m 0xc0
 1640.5 1612 1680.5 1576 1722.5 1534 c 0
 1764.5 1492 1802.5 1453 1839.5 1408 c 0
 1876.5 1363 1899.5 1325 1909.5 1295 c 0
 1910.5 1293 1910.5 1289 1910.5 1287 c 0
 1910.5 1262 1879.5 1210 1819.5 1134 c 0
 1752.5 1048 1668.5 953 1568.5 842 c 1
 1660.5 740 1735.5 646 1796.5 567 c 0
 1857.5 488 1890.5 439 1892.5 415 c 0
 1892.5 413 1896.5 408 1896.5 406 c 0
 1896.5 390 1884.5 364 1863.5 331 c 0
 1838.5 289 1806.5 249 1767.5 205 c 0
 1728.5 161 1687.5 122 1644.5 84 c 0
 1601.5 46 1565.5 20 1535.5 10 c 0
 1533.5 9 1530.5 9 1528.5 9 c 0
 1503.5 9 1450.5 40 1372.5 100 c 0
 1284.5 167 1190.5 250 1091.5 350 c 1
 1007.5 269 935.5 198 870.5 138 c 0
 804.5 78 758.5 36 729.5 16 c 0
 713.5 6 697.5 -1 676.5 -1 c 0
 647.5 -1 614.5 10 577.5 30 c 0
 512.5 67 453.5 118 397.5 178 c 0
 341.5 238 295.5 297 264.5 362 c 0
 245.5 400 235.5 433 235.5 459 c 0
 235.5 478 240.5 490 249.5 503 c 0
 287.5 547 334.5 599 390.5 659 c 0
 446.5 719 513.5 784 581.5 852 c 1
 422.5 1015 315.5 1127 268.5 1191 c 0
 254.5 1207 249.5 1228 249.5 1250 c 0
 249.5 1277 259.5 1310 278.5 1344 c 0
 311.5 1409 362.5 1469 419.5 1525 c 0
 475.5 1581 535.5 1630 599.5 1663 c 0
 637.5 1683 668.5 1692 694.5 1692 c 0xa0
 713.5 1692 727.5 1686 740.5 1677 c 0
 786.5 1638 840.5 1589 901.5 1533 c 0
 962.5 1477 1026.5 1412 1094.5 1344 c 1
 1195.5 1437 1287.5 1513 1366.5 1577 c 0
 1445.5 1641 1496.5 1672 1520.5 1674 c 0
 1521.5 1674 1525.5 1675 1526.5 1675 c 0
 1542.5 1675 1567.5 1664 1601.5 1639 c 0xc0
EndSplineSet
Validated: 524289
EndChar

StartChar: Y
Encoding: 89 89 36
Width: 2200
VWidth: 2237
GlyphClass: 1
Flags: W
HStem: 0 21G<1036 1065> 0 21G<1036 1065> 1638 20G<1572.5 1608>
LayerCount: 2
Fore
SplineSet
1818.5 1019 m 0xa0
 1725.5 906 1612.5 786 1485.5 662 c 1
 1477.5 508 1467.5 372 1448.5 250 c 0
 1429.5 128 1408.5 57 1392.5 37 c 0
 1384.5 28 1354.5 17 1303.5 13 c 0
 1251.5 9 1197.5 2 1137.5 1 c 0
 1107.5 0 1079.5 0 1050.5 0 c 0
 1021.5 0 995.5 0 969.5 1 c 0
 916.5 2 881.5 8 871.5 14 c 0
 846.5 28 823.5 94 798.5 216 c 0
 772.5 338 751.5 475 737.5 626 c 1
 602.5 752 485.5 873 388.5 989 c 0
 290.5 1105 238.5 1182 235.5 1219 c 0
 234.5 1222 234.5 1225 234.5 1228 c 0
 234.5 1249 246.5 1278 271.5 1320 c 0
 301.5 1367 336.5 1419 379.5 1468 c 0
 422.5 1517 466.5 1558 509.5 1597 c 0
 552.5 1636 580.5 1655 599.5 1656 c 0
 600.5 1656 604.5 1656 605.5 1656 c 0
 648.5 1656 712.5 1618 802.5 1547 c 0
 894.5 1472 993.5 1384 1097.5 1284 c 1
 1205.5 1384 1301.5 1473 1394.5 1548 c 0
 1483.5 1620 1550.5 1658 1594.5 1658 c 0
 1595.5 1658 1597.5 1658 1598.5 1658 c 0
 1617.5 1657 1646.5 1638 1689.5 1601 c 0
 1732.5 1564 1775.5 1523 1818.5 1477 c 0
 1861.5 1431 1898.5 1385 1928.5 1339 c 0
 1953.5 1300 1965.5 1271 1965.5 1251 c 0
 1965.5 1248 1965.5 1243 1964.5 1240 c 0
 1960.5 1207 1910.5 1131 1818.5 1019 c 0xa0
EndSplineSet
Validated: 524289
EndChar

StartChar: Z
Encoding: 90 90 37
Width: 1952
VWidth: 2237
GlyphClass: 1
Flags: W
HStem: 2 651<1243.5 1661.68> 1051 631<363.333 821.5>
VStem: 234.5 1483<56.9876 524.683>
LayerCount: 2
Fore
SplineSet
303.5 1193 m 0
 295.5 1237 290.5 1286 288.5 1340 c 0
 287.5 1360 287.5 1379 287.5 1399 c 0
 287.5 1433 288.5 1468 290.5 1502 c 0
 293.5 1555 304.5 1596 317.5 1622 c 0
 326.5 1646 390.5 1660 506.5 1668 c 0
 622.5 1676 754.5 1682 898.5 1682 c 0
 1042.5 1682 1182.5 1675 1317.5 1671 c 0
 1452.5 1665 1543.5 1658 1589.5 1652 c 0
 1622.5 1648 1646.5 1618 1665.5 1571 c 0
 1684.5 1522 1696.5 1470 1699.5 1406 c 0
 1700.5 1387 1700.5 1370 1700.5 1352 c 0
 1700.5 1308 1697.5 1265 1691.5 1222 c 0
 1682.5 1162 1666.5 1115 1644.5 1088 c 2
 1642.5 1087 l 1
 1596.5 1030 1535.5 962 1466.5 887 c 0
 1397.5 810 1322.5 731 1243.5 651 c 1
 1304.5 653 1360.5 653 1411.5 653 c 0
 1430.5 653 1447.5 653 1465.5 653 c 0
 1530.5 652 1577.5 645 1604.5 642 c 0
 1643.5 636 1670.5 603 1689.5 538 c 0
 1708.5 473 1717.5 401 1717.5 326 c 0
 1717.5 251 1707.5 184 1691.5 120 c 0
 1673.5 56 1648.5 22 1617.5 20 c 0
 1527.5 12 1408.5 4 1264.5 2 c 0
 1192.5 1 1120.5 1 1049.5 1 c 0
 978.5 1 908.5 1 839.5 2 c 0
 698.5 3 575.5 10 466.5 19 c 0
 357.5 27 294.5 40 275.5 56 c 0
 250.5 71 236.5 140 234.5 262 c 0
 234.5 276 234.5 288 234.5 301 c 0
 234.5 402 243.5 478 264.5 527 c 0
 279.5 570 344.5 642 457.5 742 c 0
 569.5 842 694.5 947 821.5 1051 c 1
 698.5 1053 590.5 1062 498.5 1075 c 0
 405.5 1088 351.5 1102 333.5 1117 c 0
 320.5 1125 311.5 1149 303.5 1193 c 0
EndSplineSet
Validated: 524289
EndChar

StartChar: a
Encoding: 97 97 38
Width: 2086
VWidth: 2237
GlyphClass: 1
Flags: W
HStem: 1 21G<1360.5 1381> 1 21G<1360.5 1381> 337 375<866.971 1141.9> 1647 20G<1032.5 1070.5>
LayerCount: 2
Fore
SplineSet
234.5 92 m 0xb0
 234.5 95 234.5 98 234.5 101 c 0
 234.5 172 246.5 277 271.5 413 c 0
 297.5 555 329.5 699 370.5 853 c 0
 411.5 1007 450.5 1150 495.5 1285 c 0
 539.5 1420 578.5 1514 610.5 1568 c 0
 624.5 1590 660.5 1608 725.5 1626 c 0
 789.5 1644 859.5 1654 937.5 1660 c 0
 976.5 1663 1013.5 1667 1051.5 1667 c 0
 1089.5 1667 1123.5 1663 1160.5 1660 c 0
 1231.5 1654 1280.5 1638 1309.5 1612 c 0
 1351.5 1571 1400.5 1488 1455.5 1353 c 0
 1510.5 1218 1564.5 1074 1617.5 917 c 0
 1670.5 760 1718.5 608 1761.5 464 c 0
 1804.5 320 1830.5 218 1844.5 158 c 0
 1847.5 142 1851.5 129 1851.5 116 c 0
 1851.5 95 1844.5 78 1835.5 68 c 0
 1820.5 50 1795.5 37 1756.5 31 c 0
 1691.5 21 1614.5 12 1518.5 8 c 0
 1449.5 5 1396.5 1 1365.5 1 c 0
 1355.5 1 1344.5 1 1338.5 2 c 0
 1329.5 4 1322.5 11 1314.5 14 c 0
 1288.5 30 1263.5 74 1238.5 151 c 0
 1213.5 228 1190.5 280 1166.5 309 c 0
 1152.5 327 1135.5 334 1111.5 336 c 2
 933.5 337 l 2
 878.5 336 838.5 319 822.5 282 c 0
 800.5 236 775.5 187 748.5 131 c 0
 721.5 76 700.5 40 686.5 26 c 0
 680.5 18 671.5 11 657.5 9 c 0
 638.5 6 605.5 3 557.5 3 c 0
 526.5 3 488.5 3 445.5 4 c 0
 333.5 6 270.5 20 255.5 39 c 0
 241.5 54 235.5 72 234.5 92 c 0xb0
893.5 874 m 0
 873.5 827 865.5 792 865.5 770 c 0
 865.5 764 865.5 757 866.5 754 c 0
 875.5 725 916.5 712 988.5 712 c 0
 994.5 712 1001.5 712 1008.5 712 c 0
 1092.5 714 1137.5 735 1145.5 773 c 0
 1145.5 774 1146.5 777 1146.5 779 c 0
 1146.5 804 1124.5 854 1080.5 929 c 0
 1046.5 986 1015.5 1015 990.5 1015 c 0
 982.5 1015 970.5 1011 963.5 1003 c 0
 938.5 978 917.5 934 893.5 874 c 0
EndSplineSet
Validated: 524289
EndChar

StartChar: b
Encoding: 98 98 39
Width: 1870
VWidth: 2237
GlyphClass: 1
Flags: W
HStem: 2 413<804.48 1039.55> 726 337<818.609 967.836> 1313 379<732.5 976.445>
VStem: 238 541<451.603 711.375 1071.3 1277.16> 1007 476<1104.67 1281.97> 1078 556<455.418 663.269>
LayerCount: 2
Fore
SplineSet
973 2 m 0xf4
 896 1 816 0 729 0 c 0
 641 1 559 5 481 8 c 0
 403 12 353 19 326 32 c 0
 301 41 280 116 266 255 c 0
 252 394 241 550 238 721 c 0
 236 815 236 909 236 1000 c 0
 236 1075 236 1148 237 1220 c 0
 239 1381 250 1489 259 1542 c 0
 265 1575 303 1607 370 1633 c 0
 437 1659 515 1677 611 1686 c 0
 658 1690 707 1692 758 1692 c 0
 809 1692 861 1690 914 1686 c 0
 1022 1677 1117 1652 1205 1613 c 0
 1332 1557 1417 1464 1460 1333 c 0
 1476 1285 1483 1237 1483 1191 c 0xf8
 1483 1114 1461 1040 1415 969 c 1
 1418 965 l 1
 1514 909 1578 831 1609 738 c 0
 1625 687 1634 635 1634 581 c 0
 1634 536 1629 491 1619 444 c 0
 1592 331 1534 230 1445 149 c 0
 1356 68 1251 22 1127 9 c 0
 1101 7 1048 4 973 2 c 0xf4
778 1156 m 0
 782 1104 798 1077 818 1071 c 0
 831 1068 843 1063 857 1063 c 0
 886 1063 914 1074 943 1094 c 0
 986 1123 1007 1157 1007 1200 c 0
 1007 1229 996 1253 971 1277 c 0
 946 1301 908 1312 857 1313 c 0
 812 1313 785 1302 781 1278 c 0
 777 1260 774 1242 774 1218 c 0
 774 1199 776 1178 778 1156 c 0
963 427 m 0
 1040 448 1078 490 1078 547 c 0xf4
 1078 555 1077 565 1076 574 c 0
 1067 627 1030 671 974 701 c 0
 941 719 910 726 880 726 c 0
 858 726 837 720 817 712 c 0
 792 699 779 665 779 601 c 0
 779 597 779 588 779 585 c 0
 779 530 788 484 804 450 c 0
 814 425 839 415 878 415 c 0
 902 415 930 419 963 427 c 0
EndSplineSet
Validated: 1
EndChar

StartChar: c
Encoding: 99 99 40
Width: 1811
VWidth: 2237
GlyphClass: 1
Flags: W
HStem: 0 625<965.048 1422.25> 1104 577<1090.96 1359>
VStem: 236 665<683.159 950.483>
LayerCount: 2
Fore
SplineSet
1275 1098 m 0
 1244 1096 1212 1090 1182 1086 c 0
 1105 1071 1038 1034 974 978 c 0
 925 933 901 881 901 818 c 0
 901 802 902 784 905 766 c 0
 913 727 932 698 961 676 c 0
 1005 642 1062 625 1133 625 c 0
 1135 625 1138 625 1140 625 c 0
 1215 627 1281 634 1335 647 c 0
 1349 651 1361 653 1375 653 c 0
 1423 641 l 0
 1450 627 1477 603 1499 572 c 0
 1532 520 1555 450 1569 362 c 0
 1573 330 1575 303 1575 276 c 0
 1575 228 1569 184 1554 147 c 0
 1535 101 1508 73 1470 65 c 1
 1355 22 1225 0 1087 0 c 0
 1084 0 1079 0 1076 0 c 0
 933 1 804 27 691 79 c 0
 536 147 417 251 336 386 c 0
 268 497 236 621 236 759 c 0
 236 788 238 817 240 847 c 0
 269 1121 377 1332 566 1487 c 0
 724 1618 911 1681 1132 1681 c 0
 1176 1681 1221 1676 1267 1672 c 0
 1313 1668 1352 1644 1389 1600 c 0
 1426 1556 1453 1480 1477 1371 c 0
 1484 1338 1488 1306 1488 1277 c 0
 1488 1216 1469 1167 1435 1133 c 0
 1416 1114 1396 1105 1371 1104 c 0
 1340 1103 1306 1100 1275 1098 c 0
EndSplineSet
Validated: 1
EndChar

StartChar: d
Encoding: 100 100 41
Width: 1939
VWidth: 2237
GlyphClass: 1
Flags: W
HStem: 0 21G<674.5 821.5> 0 21G<674.5 821.5> 1666 20G<691 764> 1666 20G<691 764>
VStem: 236.5 565<671.782 1019.79> 1133.5 569<711.039 944.429>
LayerCount: 2
Fore
SplineSet
1256.5 100 m 0xac
 1089.5 32 913.5 0 729.5 0 c 0
 722.5 0 714.5 0 707.5 0 c 0
 641.5 1 577.5 6 517.5 14 c 0
 456.5 22 412.5 30 385.5 43 c 0
 342.5 61 310.5 147 285.5 303 c 0
 260.5 459 241.5 631 237.5 817 c 0
 236.5 861 236.5 901 236.5 943 c 0
 236.5 1081 245.5 1211 255.5 1335 c 0
 270.5 1496 296.5 1589 338.5 1614 c 0
 380.5 1640 441.5 1658 527.5 1671 c 0
 590.5 1679 657.5 1686 724.5 1686 c 0
 803.5 1686 884.5 1680 971.5 1667 c 0
 1129.5 1643 1262.5 1590 1373.5 1502 c 0
 1517.5 1386 1616.5 1230 1669.5 1038 c 0
 1690.5 958 1702.5 878 1702.5 801 c 0
 1702.5 693 1683.5 590 1640.5 491 c 0
 1560.5 301 1428.5 169 1256.5 100 c 0xac
805.5 805 m 0
 811.5 727 828.5 681 853.5 667 c 0
 862.5 661 878.5 659 902.5 659 c 0
 908.5 659 917.5 659 924.5 659 c 0
 980.5 660 1027.5 673 1068.5 698 c 0
 1109.5 723 1130.5 759 1133.5 806 c 0
 1133.5 812 1133.5 820 1133.5 824 c 0
 1133.5 876 1112.5 920 1069.5 958 c 0
 1022.5 1000 970.5 1024 918.5 1028 c 0
 914.5 1028 907.5 1028 903.5 1028 c 0
 887.5 1028 871.5 1026 856.5 1024 c 0
 834.5 1020 818.5 1007 812.5 983 c 0
 805.5 958 801.5 926 801.5 887 c 0
 801.5 863 802.5 835 805.5 805 c 0
EndSplineSet
Validated: 524289
EndChar

StartChar: e
Encoding: 101 101 42
Width: 1742
VWidth: 2237
GlyphClass: 1
Flags: W
HStem: 6 588<930 1421.43> 1134 546<912 1382.22>
VStem: 235 946<664.108 1043.37>
LayerCount: 2
Fore
SplineSet
1276 593 m 0
 1298 594 1320 594 1339 594 c 0
 1404 594 1444 586 1459 571 c 0
 1478 555 1493 485 1502 362 c 0
 1504 318 1507 277 1507 243 c 0
 1507 179 1501 133 1492 96 c 0
 1484 72 1427 53 1319 38 c 0
 1211 23 1094 10 959 6 c 0
 869 3 787 1 701 1 c 0
 658 1 617 1 575 2 c 0
 452 4 374 16 336 32 c 0
 314 40 298 100 284 210 c 0
 270 319 255 447 247 593 c 0
 239 737 236 888 235 1039 c 0
 235 1077 235 1114 235 1148 c 0
 235 1250 238 1337 240 1409 c 0
 240 1461 246 1510 254 1554 c 0
 262 1597 272 1626 291 1636 c 0
 310 1646 373 1656 484 1664 c 0
 595 1672 715 1678 842 1680 c 0
 864 1680 884 1680 905 1680 c 0
 1007 1680 1105 1675 1195 1671 c 0
 1304 1665 1367 1655 1383 1639 c 0
 1402 1623 1414 1560 1416 1449 c 0
 1416 1433 1417 1418 1417 1403 c 0
 1417 1314 1410 1247 1396 1199 c 0
 1388 1173 1337 1156 1243 1152 c 0
 1147 1146 1037 1137 912 1134 c 1
 912 1126 912 1117 913 1104 c 0
 914 1091 914 1082 915 1074 c 1
 996 1073 1064 1064 1116 1054 c 0
 1129 1052 1139 1030 1152 989 c 0
 1165 947 1173 907 1177 861 c 0
 1179 836 1181 813 1181 789 c 0
 1181 769 1179 748 1177 729 c 0
 1173 687 1158 666 1138 664 c 0
 1124 661 1100 656 1061 654 c 0
 1022 652 976 648 930 647 c 1
 930 638 930 626 930 613 c 0
 930 600 930 590 930 582 c 1
 1057 583 1175 589 1276 593 c 0
EndSplineSet
Validated: 1
EndChar

StartChar: f
Encoding: 102 102 43
Width: 1742
VWidth: 2237
GlyphClass: 1
Flags: W
HStem: 2 21G<589 744.5> 361 560<964 1302.93> 1030 647<964 1395.46>
LayerCount: 2
Fore
SplineSet
964 977 m 0
 964 953 964 935 964 921 c 1
 1048 920 1125 917 1194 913 c 0
 1263 909 1313 900 1339 894 c 0
 1364 886 1378 858 1386 806 c 0
 1389 776 1393 745 1393 712 c 0
 1393 688 1390 664 1388 639 c 0
 1384 579 1374 524 1359 473 c 0
 1344 421 1324 394 1305 391 c 0
 1261 381 1211 371 1147 368 c 0
 1095 365 1040 361 986 361 c 0
 976 361 963 361 950 361 c 1
 937 180 923 78 899 49 c 1
 883 20 808 4 681 2 c 0
 668 2 657 2 644 2 c 0
 534 2 455 15 404 37 c 0
 385 45 366 110 342 242 c 0
 318 373 299 525 280 694 c 0
 261 862 249 1028 241 1194 c 0
 238 1273 235 1344 235 1401 c 0
 235 1465 238 1514 242 1555 c 0
 246 1598 309 1626 424 1645 c 0
 539 1663 669 1675 810 1677 c 0
 847 1678 883 1677 917 1677 c 0
 1018 1677 1116 1674 1209 1670 c 0
 1334 1662 1412 1655 1437 1649 c 0
 1469 1641 1491 1607 1500 1542 c 0
 1504 1505 1507 1466 1507 1425 c 0
 1507 1394 1504 1364 1502 1332 c 0
 1494 1258 1482 1189 1463 1129 c 0
 1444 1068 1422 1035 1398 1033 c 0
 1344 1029 1280 1027 1203 1027 c 0
 1126 1027 1045 1028 964 1030 c 1
 964 1016 964 1001 964 977 c 0
EndSplineSet
Validated: 33
EndChar

StartChar: g
Encoding: 103 103 44
Width: 2072
VWidth: 2237
GlyphClass: 1
Flags: W
HStem: 7 877<1381.28 1797.36>
VStem: 235 605<697.432 1004.54>
LayerCount: 2
Fore
SplineSet
1034 1108 m 0
 963 1082 910 1041 879 986 c 0
 854 940 840 893 840 847 c 0
 840 837 841 825 842 815 c 0
 850 759 877 705 923 659 c 0
 969 613 1037 587 1125 584 c 0
 1127 584 1127 584 1129 584 c 0
 1189 584 1222 603 1229 644 c 0
 1237 686 1246 727 1250 769 c 1
 1250 770 1249 771 1249 772 c 0
 1249 798 1278 821 1332 840 c 0
 1388 859 1451 873 1522 879 c 0
 1549 881 1575 884 1601 884 c 0
 1643 884 1681 879 1719 875 c 0
 1779 867 1812 847 1815 818 c 0
 1823 764 1831 697 1834 611 c 0
 1836 542 1837 473 1837 406 c 0
 1837 391 1837 376 1837 361 c 0
 1836 280 1833 208 1829 144 c 0
 1823 80 1811 47 1798 37 c 0
 1785 22 1729 10 1625 8 c 0
 1605 8 1586 7 1567 7 c 0
 1491 7 1435 14 1398 24 c 0
 1392 24 1387 32 1381 42 c 1
 1279 17 1175 3 1075 3 c 0
 1048 3 1019 5 992 6 c 0
 767 24 580 113 429 271 c 0
 297 406 235 569 235 759 c 0
 235 790 237 825 240 858 c 0
 269 1112 361 1307 517 1449 c 0
 673 1591 872 1668 1109 1682 c 0
 1123 1682 1135 1683 1149 1683 c 0
 1291 1683 1422 1651 1538 1586 c 0
 1665 1514 1734 1384 1736 1198 c 0
 1736 1196 1736 1195 1736 1193 c 0
 1736 1167 1721 1144 1684 1126 c 0
 1645 1107 1598 1091 1546 1081 c 0
 1493 1071 1439 1061 1387 1059 c 0
 1361 1057 1339 1055 1320 1055 c 0
 1301 1055 1286 1057 1276 1059 c 0
 1246 1062 1230 1075 1230 1094 c 0
 1230 1095 1230 1095 1230 1096 c 0
 1230 1097 1230 1098 1230 1099 c 0
 1230 1117 1223 1127 1209 1129 c 0
 1200 1129 1189 1130 1181 1130 c 0
 1127 1130 1079 1123 1034 1108 c 0
EndSplineSet
Validated: 1
EndChar

StartChar: h
Encoding: 104 104 45
Width: 2052
VWidth: 2237
GlyphClass: 1
Flags: W
HStem: 0 21G<552.5 607> 0 21G<552.5 607> 1663 20G<532.5 640.5 1397.5 1437.5>
VStem: 234 692<1091.3 1613.79> 1126 692<1102.16 1609.89>
LayerCount: 2
Fore
SplineSet
668 2 m 0xb8
 642 1 618 0 596 0 c 0
 509 0 448 10 406 30 c 0
 382 40 358 115 336 254 c 0
 312 393 296 550 280 721 c 0
 264 892 249 1060 241 1221 c 0
 237 1322 234 1405 234 1462 c 0
 234 1494 235 1523 236 1542 c 0
 239 1587 277 1619 345 1643 c 0
 413 1667 492 1681 573 1683 c 0
 582 1683 596 1683 605 1683 c 0
 676 1683 740 1674 800 1659 c 0
 868 1641 908 1616 911 1579 c 0
 917 1515 923 1445 926 1359 c 0
 928 1273 935 1182 936 1088 c 1
 1000 1090 1061 1096 1129 1097 c 1
 1127 1165 1126 1230 1126 1294 c 0
 1126 1318 1127 1340 1127 1362 c 0
 1127 1446 1130 1518 1133 1579 c 0
 1135 1617 1171 1641 1239 1660 c 0
 1299 1675 1362 1686 1433 1686 c 0
 1442 1686 1455 1684 1464 1684 c 0
 1545 1682 1624 1670 1695 1646 c 0
 1764 1622 1803 1591 1809 1546 c 0
 1815 1503 1818 1429 1818 1320 c 0
 1818 1290 1817 1258 1817 1224 c 0
 1815 1063 1809 896 1801 725 c 0
 1792 553 1778 398 1762 259 c 0
 1746 120 1728 43 1706 33 c 0
 1663 13 1598 3 1508 3 c 0
 1488 3 1466 3 1444 4 c 0
 1321 8 1252 26 1237 55 c 0
 1224 70 1214 115 1201 189 c 0
 1188 263 1179 352 1170 456 c 1
 1128 448 1087 440 1045 436 c 0
 1002 430 964 422 922 418 c 1
 918 322 908 244 900 178 c 0
 892 112 885 69 876 54 c 0
 862 25 791 6 668 2 c 0xb8
EndSplineSet
Validated: 1
EndChar

StartChar: i
Encoding: 105 105 46
Width: 1243
VWidth: 2237
GlyphClass: 1
Flags: W
HStem: 0 21G<575 635.5> 0 21G<575 635.5> 1667 20G<649 693.5> 1667 20G<649 693.5>
VStem: 240.5 767<578.125 1614.92>
LayerCount: 2
Fore
SplineSet
695.5 1 m 0xa8
 670.5 0 646.5 0 624.5 0 c 0
 525.5 0 452.5 10 405.5 30 c 0
 380.5 40 357.5 115 333.5 254 c 0
 309.5 393 293.5 552 277.5 724 c 0
 261.5 895 248.5 1062 240.5 1223 c 0
 237.5 1300 235.5 1365 235.5 1417 c 0
 235.5 1473 237.5 1517 240.5 1546 c 0
 244.5 1590 285.5 1622 363.5 1646 c 0
 440.5 1670 523.5 1684 615.5 1686 c 0
 628.5 1686 642.5 1687 655.5 1687 c 0
 731.5 1687 801.5 1679 867.5 1664 c 0
 942.5 1646 984.5 1619 987.5 1581 c 0
 1000.5 1477 1005.5 1343 1006.5 1178 c 0
 1006.5 1151 1007.5 1124 1007.5 1097 c 0
 1007.5 961 1003.5 828 997.5 694 c 0
 991.5 535 983.5 394 969.5 271 c 0
 955.5 148 941.5 75 925.5 53 c 1
 910.5 23 832.5 5 695.5 1 c 0xa8
EndSplineSet
Validated: 524289
EndChar

StartChar: j
Encoding: 106 106 47
Width: 1985
VWidth: 2237
GlyphClass: 1
Flags: W
HStem: 0 21G<883 1035.5> 0 21G<883 1035.5> 1657 20G<1380.5 1417>
VStem: 1053.5 695<620.552 1460.44>
LayerCount: 2
Fore
SplineSet
1356.5 64 m 0xb0
 1231.5 22 1102.5 0 968.5 0 c 0
 965.5 0 956.5 0 953.5 0 c 0
 812.5 2 677.5 34 543.5 90 c 0
 408.5 146 324.5 239 282.5 362 c 0
 258.5 434 242.5 513 238.5 594 c 0
 236.5 626 236.5 659 236.5 690 c 0
 236.5 737 239.5 783 243.5 829 c 1
 243.5 885 271.5 931 335.5 958 c 0
 396.5 985 464.5 1002 538.5 1004 c 0
 548.5 1004 562.5 1005 572.5 1005 c 0
 632.5 1005 686.5 999 737.5 983 c 0
 793.5 964 825.5 940 825.5 908 c 0
 825.5 907 825.5 906 825.5 905 c 0
 826.5 879 825.5 848 825.5 814 c 0
 825.5 780 826.5 741 825.5 698 c 0
 825.5 697 825.5 696 825.5 695 c 0
 825.5 614 864.5 571 939.5 570 c 0
 941.5 570 942.5 570 943.5 570 c 0
 989.5 570 1018.5 587 1031.5 619 c 0
 1041.5 652 1051.5 692 1053.5 735 c 0
 1057.5 804 1060.5 873 1060.5 941 c 0
 1060.5 1033 1055.5 1124 1047.5 1213 c 0
 1034.5 1328 1030.5 1418 1030.5 1475 c 0
 1030.5 1495 1030.5 1510 1031.5 1524 c 0
 1033.5 1569 1067.5 1604 1131.5 1629 c 0
 1195.5 1654 1264.5 1672 1341.5 1676 c 0
 1357.5 1677 1372.5 1677 1388.5 1677 c 0
 1445.5 1677 1503.5 1669 1555.5 1659 c 0
 1622.5 1644 1663.5 1618 1673.5 1581 c 0
 1687.5 1529 1701.5 1443 1717.5 1320 c 0
 1733.5 1197 1743.5 1068 1747.5 929 c 0
 1748.5 890 1748.5 852 1748.5 814 c 0
 1748.5 717 1745.5 623 1736.5 533 c 0
 1722.5 408 1693.5 316 1648.5 262 c 0
 1582.5 172 1487.5 107 1356.5 64 c 0xb0
EndSplineSet
Validated: 524321
EndChar

StartChar: k
Encoding: 107 107 48
Width: 1945
VWidth: 2237
GlyphClass: 1
Flags: W
HStem: 0 22G<517.5 576 1428 1445> 0 22G<517.5 576 1428 1445> 1648 20G<650 691.5>
VStem: 235.5 729<1388 1602.15>
LayerCount: 2
Fore
SplineSet
1571.5 1089 m 0xb0
 1497.5 1001 1411.5 907 1314.5 807 c 1
 1470.5 728 1593.5 658 1686.5 594 c 0
 1702.5 584 1709.5 558 1709.5 525 c 0
 1709.5 509 1704.5 491 1701.5 469 c 0
 1688.5 402 1670.5 333 1640.5 262 c 0
 1610.5 191 1573.5 127 1531.5 74 c 0
 1494.5 27 1460.5 1 1429.5 1 c 0
 1426.5 1 1420.5 1 1417.5 2 c 0
 1379.5 10 1315.5 39 1221.5 84 c 0
 1127.5 129 1030.5 179 922.5 234 c 1
 908.5 136 893.5 75 879.5 56 c 0
 863.5 26 788.5 10 652.5 2 c 0
 620.5 0 589.5 0 562.5 0 c 0
 472.5 0 406.5 10 363.5 29 c 0
 338.5 39 318.5 115 299.5 254 c 0
 280.5 393 264.5 553 255.5 725 c 0
 245.5 897 238.5 1066 236.5 1227 c 0
 235.5 1275 235.5 1320 235.5 1359 c 0
 235.5 1449 236.5 1513 242.5 1552 c 0
 246.5 1585 289.5 1611 363.5 1630 c 0
 437.5 1649 513.5 1665 600.5 1667 c 0
 620.5 1668 640.5 1668 659.5 1668 c 0
 723.5 1668 784.5 1662 839.5 1653 c 0
 910.5 1640 947.5 1623 949.5 1596 c 0
 951.5 1566 958.5 1532 960.5 1499 c 0
 962.5 1467 963.5 1430 964.5 1388 c 1
 1050.5 1459 1127.5 1515 1198.5 1559 c 0
 1255.5 1596 1299.5 1615 1324.5 1615 c 0
 1328.5 1615 1334.5 1614 1337.5 1613 c 0
 1393.5 1587 1464.5 1530 1551.5 1441 c 0
 1635.5 1354 1677.5 1297 1677.5 1267 c 0
 1677.5 1266 1676.5 1266 1676.5 1265 c 0
 1676.5 1264 1677.5 1263 1677.5 1262 c 0
 1677.5 1232 1642.5 1175 1571.5 1089 c 0xb0
EndSplineSet
Validated: 524289
EndChar

StartChar: l
Encoding: 108 108 49
Width: 1733
VWidth: 2237
GlyphClass: 1
Flags: W
HStem: 1 1679<342.722 883.257> 1 690<925.202 1398.39>
VStem: 235 678<720.451 1610.43>
LayerCount: 2
Fore
SplineSet
909 1421 m 0xa0
 910 1328 912 1230 913 1130 c 0
 914 1030 915 939 917 859 c 0
 918 778 923 729 925 720 c 0
 929 704 953 695 997 694 c 0
 1013 693 1032 691 1050 691 c 0x60
 1079 691 1112 694 1144 695 c 0
 1197 697 1249 702 1298 704 c 0
 1314 705 1328 705 1341 705 c 0
 1367 705 1386 702 1399 699 c 0
 1425 691 1448 652 1464 585 c 0
 1480 517 1493 446 1497 368 c 0
 1498 343 1498 320 1498 296 c 0
 1498 244 1494 194 1488 149 c 0
 1480 82 1465 47 1440 43 c 0
 1402 34 1329 24 1218 16 c 0
 1106 8 989 2 866 1 c 0
 850 1 833 1 818 1 c 0
 714 1 613 6 520 13 c 0
 412 21 350 39 325 65 c 0
 300 91 282 178 268 321 c 0
 254 464 244 622 241 793 c 0
 238 926 235 1051 235 1173 c 0
 235 1211 235 1246 235 1284 c 0
 236 1440 240 1540 244 1591 c 0
 246 1621 281 1643 349 1657 c 0
 417 1671 492 1679 571 1680 c 0
 650 1680 726 1673 794 1660 c 0
 861 1647 897 1632 899 1612 c 0
 901 1579 907 1514 909 1421 c 0xa0
EndSplineSet
Validated: 1
EndChar

StartChar: m
Encoding: 109 109 50
Width: 2596
VWidth: 2237
GlyphClass: 1
Flags: W
HStem: 1 21G<576.5 603> 1 21G<576.5 603> 1655 21G<538 607 1967.5 2003>
VStem: 1702.5 657<128.815 573> 1740.5 564<22.9376 543.973>
LayerCount: 2
Fore
SplineSet
1506.5 1391 m 0xb0
 1573.5 1488 1633.5 1563 1685.5 1612 c 0
 1709.5 1634 1750.5 1651 1816.5 1660 c 0
 1873.5 1668 1935.5 1675 1999.5 1675 c 0
 2006.5 1675 2014.5 1674 2021.5 1674 c 0
 2092.5 1673 2158.5 1667 2214.5 1658 c 0
 2270.5 1649 2306.5 1634 2314.5 1615 c 0
 2328.5 1584 2340.5 1489 2348.5 1333 c 0
 2356.5 1176 2359.5 1007 2359.5 824 c 0xb0
 2359.5 641 2355.5 474 2347.5 318 c 0
 2339.5 162 2323.5 71 2304.5 42 c 0
 2289.5 24 2215.5 11 2080.5 8 c 0
 2035.5 7 1997.5 4 1960.5 4 c 0
 1888.5 4 1836.5 9 1799.5 16 c 0
 1777.5 19 1759.5 83 1740.5 205 c 0xa8
 1721.5 327 1708.5 449 1702.5 573 c 1
 1688.5 558 1662.5 533 1624.5 492 c 0
 1585.5 451 1546.5 414 1503.5 372 c 0
 1460.5 330 1421.5 292 1380.5 261 c 0
 1338.5 230 1311.5 213 1292.5 213 c 0
 1273.5 213 1245.5 230 1206.5 260 c 0
 1167.5 290 1128.5 324 1086.5 366 c 0
 1044.5 407 1008.5 441 971.5 480 c 0
 934.5 519 910.5 546 896.5 560 c 1
 888.5 444 874.5 325 856.5 205 c 0
 838.5 85 821.5 22 801.5 16 c 0
 774.5 8 733.5 3 680.5 2 c 0
 649.5 1 618.5 1 587.5 1 c 0
 565.5 1 541.5 1 517.5 2 c 0
 463.5 4 415.5 10 372.5 18 c 0
 328.5 24 301.5 34 297.5 42 c 0
 278.5 69 262.5 163 253.5 321 c 0
 244.5 479 237.5 652 236.5 836 c 0
 236.5 867 236.5 895 236.5 925 c 0
 236.5 1073 238.5 1214 244.5 1346 c 0
 250.5 1502 263.5 1591 278.5 1616 c 0
 288.5 1634 325.5 1650 381.5 1659 c 0
 437.5 1668 503.5 1675 572.5 1676 c 0
 641.5 1676 710.5 1669 775.5 1660 c 0
 840.5 1651 881.5 1634 905.5 1612 c 0
 957.5 1563 1018.5 1488 1086.5 1391 c 0
 1154.5 1294 1224.5 1192 1295.5 1084 c 1
 1367.5 1192 1438.5 1294 1506.5 1391 c 0xb0
EndSplineSet
Validated: 524289
EndChar

StartChar: n
Encoding: 110 110 51
Width: 2093
VWidth: 2237
GlyphClass: 1
Flags: W
HStem: 2 21G<582.5 640 1531.5 1558> 1652 29G<556.5 588 1475 1590> 1661 20G<1475 1590>
VStem: 302.5 542<32.4065 390.188>
LayerCount: 2
Fore
SplineSet
1739.5 19 m 0xd0
 1695.5 11 1647.5 4 1595.5 3 c 0
 1580.5 2 1565.5 2 1550.5 2 c 0
 1512.5 2 1476.5 6 1442.5 8 c 0
 1393.5 11 1361.5 19 1343.5 27 c 0
 1318.5 37 1280.5 67 1234.5 113 c 0
 1188.5 159 1139.5 212 1090.5 266 c 0
 1041.5 320 994.5 374 952.5 423 c 0
 910.5 470 887.5 503 877.5 518 c 1
 867.5 387 857.5 277 844.5 184 c 0
 831.5 91 818.5 40 799.5 32 c 0
 756.5 12 686.5 2 593.5 2 c 0
 571.5 2 547.5 2 521.5 3 c 0
 387.5 7 316.5 26 302.5 56 c 1
 286.5 78 271.5 153 261.5 277 c 0
 248.5 401 239.5 545 237.5 706 c 0
 235.5 786 235.5 868 235.5 949 c 0
 235.5 1030 235.5 1114 237.5 1198 c 0
 240.5 1365 253.5 1499 269.5 1603 c 0
 271.5 1623 298.5 1642 347.5 1652 c 0
 394.5 1662 451.5 1669 515.5 1671 c 0
 531.5 1672 548.5 1672 564.5 1672 c 0
 611.5 1672 658.5 1669 705.5 1665 c 0
 769.5 1657 817.5 1647 850.5 1633 c 0
 901.5 1609 965.5 1549 1040.5 1452 c 0
 1115.5 1354 1172.5 1279 1205.5 1228 c 1
 1203.5 1306 1199.5 1376 1197.5 1436 c 0
 1196.5 1466 1196.5 1493 1196.5 1515 c 0
 1196.5 1537 1196.5 1554 1197.5 1569 c 0
 1198.5 1606 1232.5 1630 1298.5 1649 c 0
 1364.5 1667 1435.5 1679 1514.5 1681 c 0
 1529.5 1681 1544.5 1681 1559.5 1681 c 0
 1620.5 1681 1679.5 1675 1732.5 1665 c 0
 1798.5 1651 1832.5 1629 1834.5 1603 c 0
 1844.5 1495 1854.5 1361 1856.5 1194 c 0
 1857.5 1110 1857.5 1025 1857.5 944 c 0
 1857.5 863 1857.5 781 1856.5 701 c 0
 1854.5 540 1848.5 396 1840.5 273 c 0
 1832.5 150 1826.5 75 1818.5 56 c 0
 1810.5 38 1783.5 27 1739.5 19 c 0xd0
EndSplineSet
Validated: 524289
EndChar

StartChar: o
Encoding: 111 111 52
Width: 2180
VWidth: 2237
GlyphClass: 1
Flags: W
HStem: 0 628<948.781 1229.63> 1666 20G<963.5 1072> 1666 20G<963.5 1072>
LayerCount: 2
Fore
SplineSet
1598 163 m 0xc0
 1455 54 1294 0 1114 0 c 0
 1062 0 1006 6 951 14 c 0
 715 55 532 164 396 350 c 0
 288 496 235 657 235 828 c 0
 235 874 238 922 245 969 c 0
 278 1179 383 1356 552 1498 c 0
 699 1623 868 1686 1059 1686 c 0
 1085 1686 1111 1684 1138 1682 c 0
 1409 1658 1619 1557 1768 1375 c 0
 1887 1233 1945 1067 1945 879 c 0
 1945 827 1939 774 1931 719 c 0
 1892 488 1782 304 1598 163 c 0xc0
1269 971 m 0
 1236 1016 1186 1043 1121 1053 c 0
 1107 1055 1094 1055 1081 1055 c 0
 1035 1055 995 1043 958 1014 c 0
 912 977 883 929 875 874 c 0
 873 860 871 849 871 836 c 0
 871 784 889 738 930 695 c 0
 973 650 1025 628 1085 628 c 0
 1094 628 1106 628 1115 629 c 0
 1166 633 1208 656 1241 689 c 0
 1274 722 1295 765 1303 811 c 0
 1305 826 1308 840 1308 854 c 0
 1308 898 1295 938 1269 971 c 0
EndSplineSet
Validated: 1
EndChar

StartChar: p
Encoding: 112 112 53
Width: 1838
VWidth: 2237
GlyphClass: 1
Flags: W
HStem: 1 21G<535.5 595.5> 1 21G<535.5 595.5> 1181 493<697.913 1079.41>
VStem: 1126.5 477<894.439 1134.63>
LayerCount: 2
Fore
SplineSet
1370.5 513 m 0xb0
 1262.5 419 1138.5 370 994.5 370 c 0
 974.5 370 956.5 371 936.5 372 c 1
 930.5 286 920.5 215 912.5 159 c 0
 903.5 103 891.5 67 881.5 53 c 0
 866.5 24 793.5 6 658.5 2 c 0
 632.5 1 607.5 1 583.5 1 c 0
 487.5 1 418.5 10 373.5 30 c 0
 348.5 40 325.5 113 306.5 249 c 0
 287.5 384 273.5 536 260.5 705 c 0
 247.5 874 237.5 1038 235.5 1194 c 0
 234.5 1259 234.5 1314 234.5 1361 c 0
 234.5 1428 235.5 1476 238.5 1507 c 0
 242.5 1556 286.5 1596 365.5 1622 c 0
 444.5 1648 537.5 1664 639.5 1670 c 0
 678.5 1672 715.5 1674 754.5 1674 c 0
 820.5 1674 888.5 1671 955.5 1664 c 0
 1063.5 1651 1145.5 1635 1202.5 1610 c 0
 1469.5 1498 1603.5 1311 1603.5 1051 c 0
 1603.5 1008 1600.5 964 1593.5 917 c 0
 1568.5 756 1492.5 622 1370.5 513 c 0xb0
962.5 1179 m 0
 954.5 1180 946.5 1181 939.5 1181 c 0
 932.5 1181 926.5 1180 922.5 1179 c 0
 858.5 1169 826.5 1126 826.5 1052 c 0
 826.5 1045 827.5 1037 827.5 1030 c 0
 833.5 942 854.5 886 896.5 860 c 0
 906.5 853 922.5 847 941.5 847 c 0
 950.5 847 963.5 848 976.5 850 c 0
 1029.5 858 1069.5 880 1096.5 919 c 0
 1116.5 946 1126.5 978 1126.5 1011 c 0
 1126.5 1021 1125.5 1035 1123.5 1048 c 0
 1107.5 1127 1052.5 1170 962.5 1179 c 0
EndSplineSet
Validated: 524289
EndChar

StartChar: q
Encoding: 113 113 54
Width: 2540
VWidth: 2237
GlyphClass: 1
Flags: W
HStem: 0 21G<826.5 917.5> 0 21G<826.5 917.5> 1059 629<798.428 1020.97>
VStem: 234.5 499<695.564 994.986> 1075.5 503<684.666 1004.3> 1627.5 100<81.9006 700.575> 1783.5 137<323.105 708.568> 2012.5 134<324.824 717.111> 2164.5 115<21.7562 91.6236 93.218 385.299 389.156 700.296> 2206.5 99<93.218 696.753>
LayerCount: 2
Fore
SplineSet
1528.5 531 m 1xbf
 1572.5 465 1595.5 415 1596.5 384 c 0
 1596.5 383 1596.5 382 1596.5 381 c 0
 1596.5 355 1566.5 297 1501.5 205 c 0
 1435.5 109 1385.5 47 1346.5 20 c 0
 1342.5 17 1332.5 14 1324.5 14 c 0
 1314.5 14 1301.5 18 1286.5 25 c 0
 1259.5 38 1226.5 54 1194.5 79 c 1
 1130.5 40 1064.5 14 986.5 4 c 0
 959.5 1 930.5 0 904.5 0 c 0
 748.5 0 611.5 64 487.5 189 c 0
 343.5 336 257.5 521 238.5 748 c 0
 236.5 780 234.5 812 234.5 844 c 0
 234.5 1027 280.5 1198 376.5 1357 c 0
 488.5 1544 635.5 1652 818.5 1681 c 0
 851.5 1685 883.5 1688 915.5 1688 c 0
 995.5 1688 1072.5 1671 1143.5 1638 c 0
 1242.5 1592 1328.5 1523 1396.5 1433 c 0
 1464.5 1343 1516.5 1234 1548.5 1110 c 0
 1568.5 1031 1578.5 949 1578.5 861 c 0
 1578.5 815 1576.5 767 1570.5 719 c 0
 1561.5 652 1546.5 587 1528.5 531 c 1xbf
927.5 1054 m 0
 917.5 1056 904.5 1059 895.5 1059 c 0
 852.5 1059 817.5 1038 784.5 995 c 0
 751.5 950 733.5 901 733.5 846 c 0
 733.5 838 733.5 827 734.5 818 c 0
 738.5 762 758.5 715 795.5 676 c 0
 826.5 645 860.5 628 902.5 628 c 0
 909.5 628 918.5 628 925.5 629 c 0
 1011.5 642 1056.5 703 1070.5 813 c 0
 1072.5 832 1075.5 848 1075.5 864 c 0
 1075.5 968 1024.5 1033 927.5 1054 c 0
2029.5 713 m 4
 2043.5 717 2055.5 720 2070.5 720 c 4
 2085.5 720 2100.5 716 2114.5 713 c 4
 2128.5 709 2136.5 701 2138.5 691 c 4
 2140.5 675 2144.5 650 2145.5 611 c 4
 2146.5 589 2146.5 564 2146.5 539 c 4
 2146.5 521 2145.5 505 2145.5 486 c 4
 2144.5 441 2140.5 397 2138.5 354 c 4
 2136.5 310 2130.5 277 2124.5 251 c 4
 2110.5 198 2092.5 154 2067.5 121 c 4
 2042.5 87 2012.5 67 1979.5 64 c 4
 1976.5 64 1971.5 63 1968.5 63 c 4
 1930.5 63 1897.5 82 1865.5 120 c 4
 1831.5 163 1804.5 220 1790.5 289 c 4
 1786.5 311 1785.5 346 1783.5 389 c 4
 1781.5 433 1780.5 475 1780.5 519 c 4
 1780.5 564 1782.5 603 1784.5 640 c 4
 1786.5 677 1791.5 700 1795.5 709 c 4
 1798.5 717 1810.5 723 1824.5 725 c 4
 1833.5 726 1844.5 727 1854.5 727 c 4
 1857.5 727 1862.5 727 1865.5 727 c 4
 1880.5 725 1894.5 723 1907.5 717 c 4
 1917.5 713 1924.5 705 1924.5 698 c 4
 1924.5 676 1923.5 645 1921.5 603 c 4
 1920.5 579 1920.5 555 1920.5 531 c 4
 1920.5 513 1920.5 495 1920.5 479 c 4
 1921.5 437 1923.5 404 1929.5 373 c 4
 1935.5 342 1945.5 325 1959.5 323 c 4
 1960.5 323 1965.5 322 1966.5 322 c 4
 1980.5 322 1989.5 335 1995.5 362 c 4
 2001.5 393 2006.5 429 2008.5 472 c 4
 2009.5 503 2012.5 535 2012.5 566 c 4
 2012.5 576 2012.5 592 2012.5 602 c 4
 2012.5 631 2011.5 653 2011.5 672 c 4
 2011.5 681 2012.5 690 2012.5 696 c 4
 2012.5 704 2016.5 709 2029.5 713 c 4
1653.5 147 m 4
 1635.5 212 1628.5 287 1627.5 371 c 4
 1627.5 377 1627.5 383 1627.5 389 c 4
 1627.5 466 1632.5 537 1645.5 602 c 4
 1649.5 628 1656.5 656 1663.5 682 c 4
 1670.5 708 1681.5 730 1691.5 749 c 4
 1701.5 769 1716.5 779 1731.5 779 c 4
 1733.5 779 1736.5 777 1738.5 777 c 4
 1752.5 774 1760.5 760 1767.5 738 c 4
 1770.5 725 1773.5 714 1773.5 701 c 4
 1773.5 692 1771.5 679 1769.5 670 c 4
 1740.5 559 1727.5 470 1727.5 403 c 4
 1727.5 389 1729.5 375 1730.5 362 c 4
 1737.5 293 1745.5 234 1758.5 191 c 4
 1765.5 162 1772.5 136 1774.5 110 c 4
 1774.5 107 1774.5 101 1774.5 98 c 4
 1774.5 77 1768.5 59 1755.5 44 c 4
 1747.5 36 1739.5 30 1731.5 30 c 4
 1723.5 30 1709.5 36 1701.5 44 c 4
 1682.5 65 1667.5 98 1653.5 147 c 4
2177.5 27 m 4
 2171.5 37 2166.5 51 2164.5 66 c 4x3f80
 2163.5 74 2163.5 84 2163.5 92 c 4
 2163.5 118 2166.5 143 2173.5 172 c 4
 2186.5 215 2197.5 276 2204.5 345 c 4
 2205.5 359 2206.5 371 2206.5 386 c 4x3f40
 2206.5 453 2193.5 541 2164.5 651 c 4x3f80
 2160.5 670 2157.5 686 2157.5 701 c 4
 2157.5 705 2158.5 709 2158.5 713 c 4
 2162.5 744 2173.5 759 2191.5 759 c 4
 2193.5 759 2198.5 759 2201.5 758 c 4
 2223.5 752 2239.5 736 2249.5 712 c 4
 2257.5 694 2266.5 674 2272.5 652 c 4
 2278.5 630 2284.5 606 2288.5 582 c 4
 2298.5 517 2305.5 448 2305.5 371 c 4
 2305.5 365 2305.5 357 2305.5 351 c 4x3f40
 2304.5 267 2297.5 196 2279.5 131 c 4x3f80
 2259.5 57 2235.5 16 2206.5 9 c 4x3f40
 2205.5 9 2204.5 8 2203.5 8 c 4
 2195.5 8 2184.5 14 2177.5 27 c 4
EndSplineSet
Validated: 524289
EndChar

StartChar: r
Encoding: 114 114 55
Width: 1925
VWidth: 2237
GlyphClass: 1
Flags: W
HStem: 1 21G<468 590> 1 21G<468 590> 1211 500<587 980.726>
VStem: 235 512<926.869 1202.65> 1035 508<968.922 1174.08>
LayerCount: 2
Fore
SplineSet
1604 522 m 0xb8
 1659 466 1689 421 1690 391 c 0
 1690 371 1677 338 1652 296 c 0
 1627 254 1602 213 1571 171 c 0
 1540 129 1509 95 1479 64 c 0
 1449 33 1428 15 1418 15 c 0
 1412 14 1405 14 1398 14 c 0
 1352 14 1292 40 1214 89 c 0
 1124 146 1048 186 993 205 c 0
 974 211 958 214 945 214 c 0
 921 214 906 204 904 184 c 1
 904 180 904 173 904 169 c 0
 904 124 900 90 892 65 c 0
 883 38 845 20 784 14 c 0
 715 6 635 2 545 1 c 0
 530 1 515 1 501 1 c 0
 435 1 394 4 374 8 c 0
 358 10 342 21 333 37 c 0
 319 56 302 146 286 307 c 0
 270 468 254 641 245 830 c 0
 238 989 235 1136 235 1273 c 0
 235 1299 235 1326 235 1351 c 0
 236 1508 245 1589 267 1602 c 0
 346 1647 452 1679 587 1698 c 0
 643 1706 702 1711 758 1711 c 0
 834 1711 910 1704 986 1688 c 0
 1120 1662 1237 1608 1341 1524 c 0
 1443 1443 1508 1323 1532 1164 c 0
 1538 1119 1543 1078 1543 1037 c 0
 1543 889 1497 777 1408 702 c 1
 1482 638 1549 578 1604 522 c 0xb8
987 971 m 0
 1017 1008 1035 1042 1035 1081 c 0
 1034 1120 1015 1151 982 1178 c 0
 955 1199 916 1211 867 1211 c 0
 852 1211 837 1209 819 1207 c 0
 771 1203 747 1165 747 1098 c 0
 747 1083 748 1067 750 1048 c 0
 760 955 795 909 848 909 c 0
 851 909 855 909 858 909 c 0
 913 913 957 934 987 971 c 0
EndSplineSet
Validated: 1
EndChar

StartChar: s
Encoding: 115 115 56
Width: 1789
VWidth: 2237
GlyphClass: 1
Flags: W
HStem: 15 491<800.122 980.933> 1254 475<780.553 960.427>
LayerCount: 2
Fore
SplineSet
985 1165 m 0
 970 1175 961 1185 961 1199 c 0
 960 1213 953 1226 939 1236 c 0
 924 1249 906 1254 887 1254 c 0
 862 1254 833 1243 801 1221 c 0
 781 1207 771 1193 771 1183 c 0
 771 1162 804 1144 870 1130 c 0
 880 1128 890 1128 904 1126 c 0
 918 1124 932 1120 946 1118 c 0
 1113 1089 1246 1038 1343 967 c 0
 1463 879 1532 767 1551 626 c 0
 1553 605 1554 583 1554 562 c 0
 1554 447 1511 339 1431 245 c 0
 1318 113 1164 38 971 19 c 0
 940 17 909 15 879 15 c 0
 723 15 587 55 468 141 c 0
 346 227 267 336 237 463 c 0
 235 471 235 482 235 490 c 0
 235 538 267 579 331 606 c 0
 363 621 399 632 441 638 c 0
 482 644 516 650 553 650 c 0
 613 650 667 642 714 628 c 0
 761 614 790 593 796 567 c 0
 797 564 800 557 802 553 c 0
 810 535 824 521 848 513 c 0
 858 509 872 506 886 506 c 0
 905 506 923 510 944 517 c 0
 969 526 982 542 982 561 c 0
 982 569 977 580 973 589 c 0
 965 605 943 619 906 628 c 0
 820 653 741 671 655 685 c 0
 569 698 487 734 412 789 c 0
 358 830 316 880 286 948 c 0
 262 999 252 1066 252 1143 c 0
 252 1168 252 1195 254 1222 c 0
 268 1376 338 1500 472 1598 c 0
 550 1654 638 1695 737 1714 c 0
 786 1723 835 1729 883 1729 c 0
 931 1729 981 1723 1027 1714 c 0
 1120 1695 1202 1654 1277 1598 c 0
 1351 1542 1403 1461 1432 1365 c 0
 1434 1356 1438 1347 1438 1339 c 0
 1438 1314 1428 1290 1404 1271 c 0
 1373 1244 1327 1223 1281 1205 c 0
 1235 1187 1186 1174 1137 1166 c 0
 1088 1158 1052 1153 1027 1152 c 0
 1026 1152 1021 1152 1020 1152 c 0
 1006 1152 995 1158 985 1165 c 0
EndSplineSet
Validated: 1
EndChar

StartChar: t
Encoding: 116 116 57
Width: 2120
VWidth: 2237
GlyphClass: 1
Flags: W
HStem: 0 21G<1046 1074.5> 0 21G<1046 1074.5> 973 698<288.901 696.997 1430.5 1813.08>
LayerCount: 2
Fore
SplineSet
1275.5 18 m 0xa0
 1230.5 10 1180.5 3 1125.5 1 c 0
 1105.5 0 1084.5 0 1064.5 0 c 0
 1027.5 0 994.5 1 957.5 3 c 0
 902.5 6 860.5 17 831.5 30 c 0
 801.5 44 774.5 149 750.5 350 c 0
 725.5 553 707.5 757 694.5 963 c 1
 585.5 965 496.5 971 418.5 979 c 0
 340.5 988 296.5 1001 288.5 1019 c 0
 274.5 1046 263.5 1092 254.5 1153 c 0
 245.5 1217 237.5 1278 235.5 1343 c 0
 234.5 1372 234.5 1399 234.5 1425 c 0
 234.5 1457 234.5 1489 236.5 1518 c 0
 238.5 1570 250.5 1601 264.5 1609 c 0
 284.5 1625 356.5 1639 478.5 1648 c 0
 600.5 1657 740.5 1667 898.5 1669 c 0
 999.5 1671 1104.5 1672 1207.5 1672 c 0
 1263.5 1672 1325.5 1672 1381.5 1671 c 0
 1544.5 1670 1680.5 1666 1784.5 1660 c 0
 1826.5 1658 1852.5 1621 1867.5 1553 c 0
 1877.5 1500 1885.5 1442 1885.5 1379 c 0
 1885.5 1361 1885.5 1346 1884.5 1328 c 0
 1881.5 1247 1867.5 1169 1847.5 1101 c 0
 1827.5 1033 1801.5 998 1771.5 996 c 0
 1744.5 993 1699.5 987 1638.5 984 c 0
 1577.5 982 1507.5 975 1430.5 973 c 1
 1428.5 768 1422.5 570 1408.5 379 c 0
 1394.5 189 1378.5 79 1358.5 52 c 0
 1350.5 38 1320.5 26 1275.5 18 c 0xa0
EndSplineSet
Validated: 524289
EndChar

StartChar: u
Encoding: 117 117 58
Width: 2175
VWidth: 2237
GlyphClass: 1
Flags: W
HStem: 1 649<974.732 1204.29> 1647 20G<540 574.5>
VStem: 236.5 648<768.814 1585.68> 1311.5 627<824.587 1573.15>
LayerCount: 2
Fore
SplineSet
1398.5 1630 m 0
 1454.5 1643 1522.5 1648 1593.5 1648 c 0
 1600.5 1648 1607.5 1648 1614.5 1648 c 0
 1678.5 1648 1736.5 1643 1791.5 1633 c 0
 1855.5 1620 1891.5 1601 1901.5 1575 c 0
 1916.5 1536 1927.5 1471 1933.5 1375 c 0
 1936.5 1311 1938.5 1243 1938.5 1172 c 0
 1938.5 1135 1937.5 1100 1936.5 1062 c 0
 1933.5 950 1923.5 841 1908.5 732 c 0
 1892.5 623 1869.5 540 1840.5 476 c 0
 1779.5 341 1689.5 234 1573.5 148 c 0
 1457.5 62 1321.5 16 1170.5 3 c 0
 1149.5 2 1126.5 1 1105.5 1 c 0
 938.5 1 782.5 50 636.5 144 c 0
 470.5 252 356.5 391 292.5 570 c 0
 272.5 626 255.5 709 247.5 818 c 0
 239.5 912 236.5 1009 236.5 1106 c 0
 236.5 1120 236.5 1134 236.5 1148 c 0
 237.5 1259 242.5 1358 255.5 1448 c 0
 268.5 1538 284.5 1597 309.5 1622 c 0
 329.5 1641 372.5 1654 437.5 1660 c 0
 478.5 1663 518.5 1667 561.5 1667 c 0
 587.5 1667 613.5 1666 640.5 1665 c 0
 708.5 1663 771.5 1653 825.5 1639 c 0
 878.5 1626 905.5 1610 905.5 1591 c 0
 904.5 1535 901.5 1454 893.5 1353 c 0
 889.5 1288 884.5 1221 884.5 1155 c 0
 884.5 1117 887.5 1083 888.5 1046 c 0
 890.5 946 904.5 855 931.5 777 c 0
 957.5 699 1007.5 659 1075.5 651 c 0
 1082.5 650 1088.5 650 1094.5 650 c 0
 1158.5 650 1205.5 683 1235.5 752 c 0
 1266.5 830 1289.5 919 1298.5 1027 c 0
 1305.5 1113 1311.5 1195 1311.5 1281 c 0
 1311.5 1303 1310.5 1325 1310.5 1346 c 0
 1309.5 1399 1309.5 1445 1309.5 1486 c 0
 1309.5 1527 1309.5 1560 1310.5 1586 c 0
 1311.5 1605 1342.5 1620 1398.5 1630 c 0
EndSplineSet
Validated: 524289
EndChar

StartChar: v
Encoding: 118 118 59
Width: 2343
VWidth: 2237
GlyphClass: 1
Flags: W
HStem: 0 21G<1160 1213> 0 21G<1160 1213> 1651 20G<748 776.5 1554.5 1583>
LayerCount: 2
Fore
SplineSet
1340.5 1339 m 0xa0
 1396.5 1462 1450.5 1563 1495.5 1638 c 0
 1509.5 1662 1533.5 1671 1575.5 1671 c 0
 1590.5 1671 1608.5 1670 1627.5 1668 c 0
 1698.5 1655 1769.5 1632 1844.5 1599 c 0
 1918.5 1566 1986.5 1522 2041.5 1475 c 0
 2086.5 1436 2108.5 1398 2108.5 1364 c 0
 2108.5 1357 2104.5 1348 2102.5 1341 c 0
 2087.5 1292 2050.5 1198 1989.5 1059 c 0
 1928.5 920 1862.5 776 1788.5 627 c 0
 1714.5 478 1643.5 343 1575.5 221 c 0
 1507.5 99 1459.5 33 1429.5 19 c 0
 1415.5 13 1384.5 5 1338.5 3 c 0
 1292.5 1 1239.5 0 1186.5 0 c 0
 1133.5 0 1084.5 2 1038.5 4 c 0
 992.5 6 961.5 15 947.5 19 c 0
 917.5 33 867.5 96 799.5 210 c 0
 731.5 324 656.5 459 581.5 603 c 0
 504.5 747 435.5 891 370.5 1032 c 0
 304.5 1173 260.5 1276 238.5 1341 c 0
 236.5 1349 234.5 1358 234.5 1366 c 0
 234.5 1399 255.5 1436 298.5 1475 c 0
 351.5 1522 414.5 1566 488.5 1599 c 0
 562.5 1632 634.5 1655 705.5 1668 c 0
 724.5 1670 740.5 1671 755.5 1671 c 0
 797.5 1671 825.5 1662 839.5 1638 c 0
 899.5 1537 958.5 1425 1013.5 1309 c 0
 1068.5 1193 1123.5 1076 1176.5 965 c 1
 1229.5 1088 1284.5 1216 1340.5 1339 c 0xa0
EndSplineSet
Validated: 524289
EndChar

StartChar: w
Encoding: 119 119 60
Width: 2474
VWidth: 2237
GlyphClass: 1
Flags: W
HStem: 1 21G<1741.5 1843.5> 1 21G<1741.5 1843.5> 1661 20G<613 688.5 1781.5 1981.5> 1661 20G<613 688.5 1781.5 1981.5>
LayerCount: 2
Fore
SplineSet
2002.5 18 m 0xa0
 1946.5 9 1879.5 2 1807.5 1 c 0
 1794.5 1 1784.5 1 1771.5 1 c 0
 1711.5 1 1654.5 3 1600.5 9 c 0
 1533.5 15 1492.5 28 1473.5 46 c 0
 1443.5 70 1407.5 110 1362.5 166 c 0
 1317.5 221 1285.5 266 1260.5 298 c 1
 1231.5 257 1198.5 213 1161.5 166 c 0
 1124.5 117 1092.5 76 1055.5 46 c 0
 1036.5 30 992.5 19 927.5 13 c 0
 876.5 10 823.5 4 769.5 4 c 0
 754.5 4 739.5 4 723.5 4 c 0
 651.5 5 581.5 12 525.5 20 c 0
 468.5 29 433.5 41 429.5 56 c 0
 385.5 157 351.5 294 322.5 460 c 0
 293.5 625 271.5 786 257.5 947 c 0
 242.5 1108 234.5 1253 234.5 1376 c 0
 234.5 1389 234.5 1401 234.5 1411 c 0
 234.5 1512 241.5 1575 251.5 1597 c 0
 255.5 1611 282.5 1625 328.5 1639 c 0
 374.5 1653 426.5 1662 483.5 1670 c 0
 534.5 1676 587.5 1681 638.5 1681 c 0
 645.5 1681 653.5 1681 660.5 1681 c 0
 716.5 1681 763.5 1674 793.5 1660 c 0
 822.5 1646 845.5 1560 870.5 1401 c 0
 894.5 1240 919.5 1070 945.5 888 c 1
 965.5 910 1018.5 964 1097.5 1053 c 0
 1176.5 1141 1232.5 1188 1261.5 1190 c 0
 1262.5 1190 1261.5 1190 1262.5 1190 c 0
 1287.5 1190 1335.5 1144 1407.5 1053 c 0
 1479.5 961 1526.5 905 1542.5 886 c 1
 1561.5 1068 1580.5 1239 1604.5 1400 c 0
 1628.5 1561 1650.5 1646 1679.5 1660 c 0
 1708.5 1674 1753.5 1681 1809.5 1681 c 0
 1816.5 1681 1825.5 1681 1832.5 1681 c 0
 1981.5 1670 l 0
 2037.5 1662 2091.5 1653 2137.5 1639 c 0
 2183.5 1625 2211.5 1611 2215.5 1597 c 0
 2229.5 1572 2236.5 1500 2238.5 1377 c 0
 2238.5 1352 2239.5 1325 2239.5 1298 c 0
 2239.5 1195 2234.5 1075 2227.5 948 c 0
 2218.5 787 2201.5 628 2181.5 462 c 0
 2159.5 296 2131.5 160 2099.5 56 c 0
 2095.5 40 2058.5 27 2002.5 18 c 0xa0
EndSplineSet
Validated: 524289
EndChar

StartChar: x
Encoding: 120 120 61
Width: 2146
VWidth: 2237
GlyphClass: 1
Flags: W
HStem: -1 21G<662 687> 1655 20G<1526 1534.5> 1672 20G<681.5 704 1526 1534.5>
LayerCount: 2
Fore
SplineSet
1601.5 1639 m 0xc0
 1640.5 1612 1680.5 1576 1722.5 1534 c 0
 1764.5 1492 1802.5 1453 1839.5 1408 c 0
 1876.5 1363 1899.5 1325 1909.5 1295 c 0
 1910.5 1293 1910.5 1289 1910.5 1287 c 0
 1910.5 1262 1879.5 1210 1819.5 1134 c 0
 1752.5 1048 1668.5 953 1568.5 842 c 1
 1660.5 740 1735.5 646 1796.5 567 c 0
 1857.5 488 1890.5 439 1892.5 415 c 0
 1892.5 413 1896.5 408 1896.5 406 c 0
 1896.5 390 1884.5 364 1863.5 331 c 0
 1838.5 289 1806.5 249 1767.5 205 c 0
 1728.5 161 1687.5 122 1644.5 84 c 0
 1601.5 46 1565.5 20 1535.5 10 c 0
 1533.5 9 1530.5 9 1528.5 9 c 0
 1503.5 9 1450.5 40 1372.5 100 c 0
 1284.5 167 1190.5 250 1091.5 350 c 1
 1007.5 269 935.5 198 870.5 138 c 0
 804.5 78 758.5 36 729.5 16 c 0
 713.5 6 697.5 -1 676.5 -1 c 0
 647.5 -1 614.5 10 577.5 30 c 0
 512.5 67 453.5 118 397.5 178 c 0
 341.5 238 295.5 297 264.5 362 c 0
 245.5 400 235.5 433 235.5 459 c 0
 235.5 478 240.5 490 249.5 503 c 0
 287.5 547 334.5 599 390.5 659 c 0
 446.5 719 513.5 784 581.5 852 c 1
 422.5 1015 315.5 1127 268.5 1191 c 0
 254.5 1207 249.5 1228 249.5 1250 c 0
 249.5 1277 259.5 1310 278.5 1344 c 0
 311.5 1409 362.5 1469 419.5 1525 c 0
 475.5 1581 535.5 1630 599.5 1663 c 0
 637.5 1683 668.5 1692 694.5 1692 c 0xa0
 713.5 1692 727.5 1686 740.5 1677 c 0
 786.5 1638 840.5 1589 901.5 1533 c 0
 962.5 1477 1026.5 1412 1094.5 1344 c 1
 1195.5 1437 1287.5 1513 1366.5 1577 c 0
 1445.5 1641 1496.5 1672 1520.5 1674 c 0
 1521.5 1674 1525.5 1675 1526.5 1675 c 0
 1542.5 1675 1567.5 1664 1601.5 1639 c 0xc0
EndSplineSet
Validated: 524289
EndChar

StartChar: y
Encoding: 121 121 62
Width: 2200
VWidth: 2237
GlyphClass: 1
Flags: W
HStem: 0 21G<1036 1065> 0 21G<1036 1065> 1638 20G<1572.5 1608>
LayerCount: 2
Fore
SplineSet
1818.5 1019 m 0xa0
 1725.5 906 1612.5 786 1485.5 662 c 1
 1477.5 508 1467.5 372 1448.5 250 c 0
 1429.5 128 1408.5 57 1392.5 37 c 0
 1384.5 28 1354.5 17 1303.5 13 c 0
 1251.5 9 1197.5 2 1137.5 1 c 0
 1107.5 0 1079.5 0 1050.5 0 c 0
 1021.5 0 995.5 0 969.5 1 c 0
 916.5 2 881.5 8 871.5 14 c 0
 846.5 28 823.5 94 798.5 216 c 0
 772.5 338 751.5 475 737.5 626 c 1
 602.5 752 485.5 873 388.5 989 c 0
 290.5 1105 238.5 1182 235.5 1219 c 0
 234.5 1222 234.5 1225 234.5 1228 c 0
 234.5 1249 246.5 1278 271.5 1320 c 0
 301.5 1367 336.5 1419 379.5 1468 c 0
 422.5 1517 466.5 1558 509.5 1597 c 0
 552.5 1636 580.5 1655 599.5 1656 c 0
 600.5 1656 604.5 1656 605.5 1656 c 0
 648.5 1656 712.5 1618 802.5 1547 c 0
 894.5 1472 993.5 1384 1097.5 1284 c 1
 1205.5 1384 1301.5 1473 1394.5 1548 c 0
 1483.5 1620 1550.5 1658 1594.5 1658 c 0
 1595.5 1658 1597.5 1658 1598.5 1658 c 0
 1617.5 1657 1646.5 1638 1689.5 1601 c 0
 1732.5 1564 1775.5 1523 1818.5 1477 c 0
 1861.5 1431 1898.5 1385 1928.5 1339 c 0
 1953.5 1300 1965.5 1271 1965.5 1251 c 0
 1965.5 1248 1965.5 1243 1964.5 1240 c 0
 1960.5 1207 1910.5 1131 1818.5 1019 c 0xa0
EndSplineSet
Validated: 524289
EndChar

StartChar: z
Encoding: 122 122 63
Width: 1952
VWidth: 2237
GlyphClass: 1
Flags: W
HStem: 2 651<1243.5 1661.68> 1051 631<363.333 821.5>
VStem: 234.5 1483<56.9876 524.683>
LayerCount: 2
Fore
SplineSet
303.5 1193 m 0
 295.5 1237 290.5 1286 288.5 1340 c 0
 287.5 1360 287.5 1379 287.5 1399 c 0
 287.5 1433 288.5 1468 290.5 1502 c 0
 293.5 1555 304.5 1596 317.5 1622 c 0
 326.5 1646 390.5 1660 506.5 1668 c 0
 622.5 1676 754.5 1682 898.5 1682 c 0
 1042.5 1682 1182.5 1675 1317.5 1671 c 0
 1452.5 1665 1543.5 1658 1589.5 1652 c 0
 1622.5 1648 1646.5 1618 1665.5 1571 c 0
 1684.5 1522 1696.5 1470 1699.5 1406 c 0
 1700.5 1387 1700.5 1370 1700.5 1352 c 0
 1700.5 1308 1697.5 1265 1691.5 1222 c 0
 1682.5 1162 1666.5 1115 1644.5 1088 c 2
 1642.5 1087 l 1
 1596.5 1030 1535.5 962 1466.5 887 c 0
 1397.5 810 1322.5 731 1243.5 651 c 1
 1304.5 653 1360.5 653 1411.5 653 c 0
 1430.5 653 1447.5 653 1465.5 653 c 0
 1530.5 652 1577.5 645 1604.5 642 c 0
 1643.5 636 1670.5 603 1689.5 538 c 0
 1708.5 473 1717.5 401 1717.5 326 c 0
 1717.5 251 1707.5 184 1691.5 120 c 0
 1673.5 56 1648.5 22 1617.5 20 c 0
 1527.5 12 1408.5 4 1264.5 2 c 0
 1192.5 1 1120.5 1 1049.5 1 c 0
 978.5 1 908.5 1 839.5 2 c 0
 698.5 3 575.5 10 466.5 19 c 0
 357.5 27 294.5 40 275.5 56 c 0
 250.5 71 236.5 140 234.5 262 c 0
 234.5 276 234.5 288 234.5 301 c 0
 234.5 402 243.5 478 264.5 527 c 0
 279.5 570 344.5 642 457.5 742 c 0
 569.5 842 694.5 947 821.5 1051 c 1
 698.5 1053 590.5 1062 498.5 1075 c 0
 405.5 1088 351.5 1102 333.5 1117 c 0
 320.5 1125 311.5 1149 303.5 1193 c 0
EndSplineSet
Validated: 524289
EndChar

StartChar: glyph251
Encoding: 43 43 64
Width: 2596
VWidth: 2237
Flags: HWO
HStem: 7.17985e+33 6.10032e+31G<6.67126e+34 6.73827e+34>
VStem: 8.1507e+34 2.31704e+34<5.77607e+33 7.38542e+33>
LayerCount: 2
Fore
SplineSet
1551.25585938 1482.8046875 m 4
 1631.03710938 1586.06152344 1702.48339844 1665.90039062 1764.40234375 1718.06152344 c 4
 1792.98339844 1741.48046875 1841.8046875 1759.57714844 1920.39746094 1769.15820312 c 4
 1988.27148438 1777.67285156 2062.09863281 1785.12597656 2138.30859375 1785.12597656 c 4
 2146.64355469 1785.12597656 2156.17089844 1784.06152344 2164.50585938 1784.06152344 c 4
 2249.05078125 1782.99609375 2327.64257812 1776.609375 2394.32617188 1767.02832031 c 4
 2461.00976562 1757.44824219 2503.87792969 1741.48046875 2513.40332031 1721.25390625 c 4
 2530.07519531 1688.25488281 2544.36621094 1587.12597656 2553.88964844 1421.06347656 c 4
 2563.41601562 1253.93457031 2566.99023438 1074.03320312 2566.99023438 879.227539062 c 4
 2566.99023438 684.421875 2562.22558594 506.6484375 2552.70117188 340.583984375 c 4
 2543.17382812 174.520507812 2524.12207031 77.6513671875 2501.49707031 46.7802734375 c 4
 2483.63476562 27.619140625 2395.51757812 13.7802734375 2234.76171875 10.5859375 c 4
 2181.17675781 9.5224609375 2135.92773438 6.328125 2091.86816406 6.328125 c 4
 2006.13183594 6.328125 1944.2109375 11.650390625 1900.15234375 19.1025390625 c 4
 1873.95605469 22.2958984375 1852.52148438 90.4248046875 1829.89746094 220.294921875 c 4
 1807.27148438 350.165039062 1791.79199219 480.03515625 1784.64746094 612.034179688 c 5
 1767.9765625 596.067382812 1737.01660156 569.454101562 1691.76464844 525.809570312 c 4
 1645.32617188 482.1640625 1598.88574219 442.77734375 1547.68164062 398.067382812 c 4
 1496.47753906 353.358398438 1450.03710938 312.907226562 1401.21582031 279.907226562 c 4
 1351.203125 246.908203125 1319.05175781 228.811523438 1296.42773438 228.811523438 c 4
 1273.80273438 228.811523438 1240.45996094 246.908203125 1194.02050781 278.84375 c 4
 1147.58007812 310.778320312 1101.13867188 346.971679688 1051.12597656 391.680664062 c 4
 1001.11328125 435.326171875 958.24609375 471.51953125 914.1875 513.03515625 c 4
 870.127929688 554.55078125 841.549804688 583.29296875 824.87890625 598.196289062 c 5
 815.352539062 474.712890625 798.680664062 348.036132812 777.248046875 220.294921875 c 4
 755.8125 92.5537109375 735.5703125 25.4892578125 711.754882812 19.1025390625 c 4
 679.604492188 10.5859375 630.782226562 5.263671875 567.669921875 4.19921875 c 4
 530.755859375 3.1337890625 493.841796875 3.1337890625 456.927734375 3.1337890625 c 4
 430.73046875 3.1337890625 402.151367188 3.1337890625 373.573242188 4.19921875 c 4
 309.270507812 6.328125 252.115234375 12.7158203125 200.91015625 21.23046875 c 4
 148.514648438 27.619140625 116.364257812 38.2626953125 111.602539062 46.7802734375 c 4
 88.9765625 75.521484375 69.9248046875 175.5859375 59.2060546875 343.779296875 c 4
 48.4912109375 511.970703125 40.1552734375 696.130859375 38.9638671875 892.001953125 c 4
 38.9638671875 925.000976562 38.9638671875 954.806640625 38.9638671875 986.7421875 c 4
 38.9638671875 1144.29003906 41.3447265625 1294.38574219 48.4912109375 1434.90234375 c 4
 55.634765625 1600.96582031 71.115234375 1695.70703125 88.9765625 1722.31933594 c 4
 100.883789062 1741.48046875 144.943359375 1758.51269531 211.627929688 1768.09277344 c 4
 278.311523438 1777.67285156 356.90234375 1785.12597656 439.06640625 1786.18945312 c 4
 521.229492188 1786.18945312 603.393554688 1778.73828125 680.793945312 1769.15820312 c 4
 758.1953125 1759.57714844 807.017578125 1741.48046875 835.595703125 1718.06152344 c 4
 897.515625 1665.90039062 970.153320312 1586.06152344 1051.12597656 1482.8046875 c 4
 1132.10058594 1379.546875 1215.453125 1270.96582031 1300 1156 c 5
 1385.73632812 1270.96582031 1470.28027344 1379.546875 1551.25585938 1482.8046875 c 4
EndSplineSet
EndChar
